<svg width="24" height="24" viewBox="0 0 24 24" fill="none" xmlns="http://www.w3.org/2000/svg">
<path d="M16.484 11.973L22.635 5.961V17.9164L16.484 11.973ZM8.558 12.9911L10.718 15.1005C11.057 15.4245 11.499 15.6203 11.982 15.6203H11.999H11.998H12.012C12.496 15.6203 12.938 15.4234 13.281 15.0971L13.278 15.0994L15.438 12.99L22.004 19.3339H1.995L8.558 12.9911ZM1.986 4.53562H22.016L12.395 13.9361C12.2868 14.0324 12.1529 14.0847 12.015 14.0846H12.001H12.002H11.988C11.8496 14.0848 11.7152 14.0321 11.607 13.935L11.608 13.9361L1.986 4.53562ZM1.365 5.95988L7.515 11.9719L1.365 17.9119V5.95988ZM22.965 3.21375C22.725 3.07875 22.443 3 22.144 3H1.859C1.56916 3.00008 1.28331 3.07595 1.024 3.22163L1.035 3.216C0.724573 3.38825 0.463148 3.65473 0.280254 3.98533C0.0973606 4.31593 0.000287348 4.69748 0 5.08687L0 18.7804C0.000529404 19.3346 0.196452 19.8659 0.54478 20.2577C0.893108 20.6496 1.36539 20.87 1.858 20.8706H22.141C22.6336 20.87 23.1059 20.6496 23.4542 20.2577C23.8025 19.8659 23.9985 19.3346 23.999 18.7804V5.08687C23.999 4.269 23.58 3.56025 22.97 3.21938L22.959 3.21375H22.965Z" fill="#FF607B"/>
</svg>
