<svg width="30" height="30" viewBox="0 0 30 30" fill="none" xmlns="http://www.w3.org/2000/svg">
<path d="M24.2046 11.9318C24.2046 9.49063 23.2348 7.14941 21.5086 5.42323C19.7824 3.69704 17.4412 2.72728 15 2.72728C12.5588 2.72728 10.2176 3.69704 8.49141 5.42323C6.76522 7.14941 5.79546 9.49063 5.79546 11.9318C5.79546 15.7077 8.8166 20.6291 15 26.5241C21.1834 20.6291 24.2046 15.7077 24.2046 11.9318ZM15 29.3182C7.49932 22.5007 3.75001 16.7039 3.75001 11.9318C3.75001 8.94814 4.93527 6.08666 7.04505 3.97687C9.15484 1.86709 12.0163 0.681824 15 0.681824C17.9837 0.681824 20.8452 1.86709 22.955 3.97687C25.0647 6.08666 26.25 8.94814 26.25 11.9318C26.25 16.7039 22.5007 22.5007 15 29.3182Z" fill="white"/>
<path d="M15 12.9546C15.5425 12.9546 16.0628 12.739 16.4464 12.3555C16.83 11.9719 17.0455 11.4516 17.0455 10.9091C17.0455 10.3666 16.83 9.84634 16.4464 9.46274C16.0628 9.07914 15.5425 8.86364 15 8.86364C14.4575 8.86364 13.9372 9.07914 13.5537 9.46274C13.1701 9.84634 12.9546 10.3666 12.9546 10.9091C12.9546 11.4516 13.1701 11.9719 13.5537 12.3555C13.9372 12.739 14.4575 12.9546 15 12.9546ZM15 15C13.915 15 12.8745 14.569 12.1073 13.8018C11.3401 13.0346 10.9091 11.9941 10.9091 10.9091C10.9091 9.82412 11.3401 8.78358 12.1073 8.01639C12.8745 7.24919 13.915 6.81819 15 6.81819C16.085 6.81819 17.1255 7.24919 17.8927 8.01639C18.6599 8.78358 19.0909 9.82412 19.0909 10.9091C19.0909 11.9941 18.6599 13.0346 17.8927 13.8018C17.1255 14.569 16.085 15 15 15ZM26.0455 21.1364L29.3182 29.3182H20.1136V27.2727H9.88637V29.3182H0.681824L3.95455 21.1364H26.0455ZM23.8425 21.1364H6.15751L3.70296 27.2727H26.2971L23.8425 21.1364Z" fill="white"/>
</svg>
