<svg width="24" height="24" viewBox="0 0 24 24" fill="none" xmlns="http://www.w3.org/2000/svg">
<path fill-rule="evenodd" clip-rule="evenodd" d="M17.0406 14.1835C16.7661 14.0469 15.4204 13.3888 15.1699 13.2971C14.9193 13.2064 14.737 13.1614 14.5537 13.4346C14.3713 13.7059 13.8472 14.3201 13.6878 14.5016C13.5276 14.684 13.3682 14.706 13.0947 14.5703C12.8211 14.4328 11.9387 14.1459 10.8933 13.2183C10.08 12.4959 9.5301 11.604 9.37076 11.3309C9.21141 11.0586 9.35326 10.911 9.4905 10.7754C9.61392 10.6534 9.76406 10.4573 9.9013 10.2987C10.0385 10.1392 10.0837 10.0255 10.1749 9.84311C10.267 9.66161 10.2209 9.50302 10.1518 9.36644C10.0837 9.22986 9.53655 7.88878 9.30812 7.34336C9.08614 6.81261 8.86048 6.88503 8.69284 6.87586C8.53258 6.86853 8.3502 6.86669 8.16783 6.86669C7.98546 6.86669 7.68887 6.93453 7.43833 7.20769C7.18688 7.47994 6.48041 8.13903 6.48041 9.48011C6.48041 10.8203 7.46044 12.1155 7.59768 12.2979C7.73492 12.4794 9.52734 15.2313 12.2731 16.411C12.927 16.6915 13.4364 16.8593 13.8334 16.9839C14.4892 17.192 15.086 17.1627 15.5576 17.0921C16.0827 17.0142 17.1769 16.433 17.4053 15.7968C17.6328 15.1607 17.6328 14.6153 17.5647 14.5016C17.4965 14.3879 17.3141 14.3201 17.0397 14.1835H17.0406ZM12.0465 20.9696H12.0428C10.412 20.9699 8.81108 20.5336 7.40794 19.7064L7.07635 19.5103L3.62968 20.4104L4.54983 17.0664L4.33338 16.7236C3.42164 15.2792 2.93914 13.6076 2.94163 11.9019C2.94347 6.90611 7.02753 2.84162 12.0502 2.84162C14.4818 2.84162 16.7679 3.78578 18.4867 5.49811C19.3344 6.33831 20.0063 7.33746 20.4636 8.43776C20.9208 9.53807 21.1542 10.7177 21.1504 11.9084C21.1486 16.9042 17.0645 20.9696 12.0465 20.9696ZM19.7946 4.19737C18.7797 3.18071 17.5722 2.37461 16.2421 1.82577C14.9119 1.27693 13.4855 0.996263 12.0456 1.00004C6.00882 1.00004 1.09395 5.89045 1.09211 11.901C1.08931 13.8139 1.59352 15.6936 2.55386 17.3506L1 23L6.80648 21.4838C8.41272 22.3548 10.2127 22.8111 12.0419 22.8112H12.0465C18.0832 22.8112 22.9981 17.9208 22.9999 11.9093C23.0044 10.4768 22.7234 9.05762 22.1732 7.73389C21.623 6.41016 20.8146 5.20815 19.7946 4.19737Z" fill="#FF607B"/>
</svg>
