<svg width="70" height="70" viewBox="0 0 70 70" fill="none" xmlns="http://www.w3.org/2000/svg">
<path d="M12.598 31.8614C9.2029 33.6133 7.91988 37.6401 9.73375 40.8554C11.198 43.4509 15.7491 49.0559 29.8532 49.8179C30.1052 49.8305 30.3559 49.7765 30.578 49.6619C30.8001 49.5473 30.9849 49.3765 31.1124 49.1682C38.1905 37.4759 35.7913 30.7606 34.3271 28.165C32.5132 24.9497 28.2898 23.7643 24.8947 25.5162C21.4996 27.2681 20.7367 32.2169 20.7367 32.2169C20.7367 32.2169 15.9931 30.1095 12.598 31.8614Z" stroke="#FF607B" stroke-width="2" stroke-linecap="round" stroke-linejoin="round"/>
<path d="M49.7879 14.6536C47.0112 13.5617 43.8432 14.8077 42.7127 17.4373C41.8001 19.5601 40.5143 24.9442 46.9868 33.4431C47.1031 33.5944 47.2607 33.7122 47.4424 33.7836C47.624 33.855 47.8226 33.8773 48.0166 33.848C58.868 32.1612 61.9138 27.4691 62.8263 25.3464C63.9568 22.7168 62.6214 19.6999 59.8447 18.6081C57.068 17.5162 53.5758 19.5163 53.5758 19.5163C53.5758 19.5163 52.5646 15.7454 49.7879 14.6536Z" stroke="#FF607B" stroke-width="2" stroke-linecap="round" stroke-linejoin="round"/>
<path d="M55.6695 43.1769C54.481 42.0069 52.5353 41.9705 51.3239 43.0961C50.346 44.0047 48.4018 46.532 49.7634 52.3619C49.7882 52.4659 49.8424 52.5614 49.9202 52.638C49.9979 52.7145 50.0962 52.7691 50.2042 52.7958C56.258 54.2657 58.9556 52.48 59.9335 51.5713C61.1449 50.4457 61.1629 48.5846 59.9743 47.4146C58.7858 46.2446 56.4927 46.5309 56.4927 46.5309C56.4927 46.5309 56.8581 44.3469 55.6695 43.1769Z" stroke="#FF607B" stroke-width="2" stroke-linecap="round" stroke-linejoin="round"/>
</svg>
