<svg width="175" height="58" viewBox="0 0 175 58" fill="none" xmlns="http://www.w3.org/2000/svg">
<path d="M14 28C14 31.866 10.866 35 7 35C3.13401 35 0 31.866 0 28C0 24.134 3.13401 21 7 21C10.866 21 14 24.134 14 28ZM2.29203 28C2.29203 30.6001 4.39986 32.708 7 32.708C9.60014 32.708 11.708 30.6001 11.708 28C11.708 25.3999 9.60014 23.292 7 23.292C4.39986 23.292 2.29203 25.3999 2.29203 28Z" fill="#F70000"/>
<path d="M31.24 14.034H37.9V15.168H31.24V14.034ZM31.384 19.848H38.962V21H30.052V8.4H38.692V9.552H31.384V19.848ZM46.647 11.46C47.415 11.46 48.087 11.61 48.663 11.91C49.251 12.198 49.707 12.642 50.031 13.242C50.367 13.842 50.535 14.598 50.535 15.51V21H49.257V15.636C49.257 14.64 49.005 13.89 48.501 13.386C48.009 12.87 47.313 12.612 46.413 12.612C45.741 12.612 45.153 12.75 44.649 13.026C44.157 13.29 43.773 13.68 43.497 14.196C43.233 14.7 43.101 15.312 43.101 16.032V21H41.823V11.55H43.047V14.142L42.849 13.656C43.149 12.972 43.629 12.438 44.289 12.054C44.949 11.658 45.735 11.46 46.647 11.46ZM56.9751 21.09C56.0871 21.09 55.4031 20.85 54.9231 20.37C54.4431 19.89 54.2031 19.212 54.2031 18.336V9.462H55.4811V18.264C55.4811 18.816 55.6191 19.242 55.8951 19.542C56.1831 19.842 56.5911 19.992 57.1191 19.992C57.6831 19.992 58.1511 19.83 58.5231 19.506L58.9731 20.424C58.7211 20.652 58.4151 20.82 58.0551 20.928C57.7071 21.036 57.3471 21.09 56.9751 21.09ZM52.5111 12.612V11.55H58.3611V12.612H52.5111ZM61.2996 21V11.55H62.5236V14.124L62.3976 13.674C62.6616 12.954 63.1056 12.408 63.7296 12.036C64.3536 11.652 65.1276 11.46 66.0516 11.46V12.702C66.0036 12.702 65.9556 12.702 65.9076 12.702C65.8596 12.69 65.8116 12.684 65.7636 12.684C64.7676 12.684 63.9876 12.99 63.4236 13.602C62.8596 14.202 62.5776 15.06 62.5776 16.176V21H61.2996ZM72.3097 21.09C71.3257 21.09 70.4617 20.886 69.7177 20.478C68.9737 20.058 68.3917 19.488 67.9717 18.768C67.5517 18.036 67.3417 17.202 67.3417 16.266C67.3417 15.33 67.5397 14.502 67.9357 13.782C68.3437 13.062 68.8957 12.498 69.5917 12.09C70.2997 11.67 71.0917 11.46 71.9677 11.46C72.8557 11.46 73.6417 11.664 74.3257 12.072C75.0217 12.468 75.5677 13.032 75.9637 13.764C76.3597 14.484 76.5577 15.318 76.5577 16.266C76.5577 16.326 76.5517 16.392 76.5397 16.464C76.5397 16.524 76.5397 16.59 76.5397 16.662H68.3137V15.708H75.8557L75.3517 16.086C75.3517 15.402 75.2017 14.796 74.9017 14.268C74.6137 13.728 74.2177 13.308 73.7137 13.008C73.2097 12.708 72.6277 12.558 71.9677 12.558C71.3197 12.558 70.7377 12.708 70.2217 13.008C69.7057 13.308 69.3037 13.728 69.0157 14.268C68.7277 14.808 68.5837 15.426 68.5837 16.122V16.32C68.5837 17.04 68.7397 17.676 69.0517 18.228C69.3757 18.768 69.8197 19.194 70.3837 19.506C70.9597 19.806 71.6137 19.956 72.3457 19.956C72.9217 19.956 73.4557 19.854 73.9477 19.65C74.4517 19.446 74.8837 19.134 75.2437 18.714L75.9637 19.542C75.5437 20.046 75.0157 20.43 74.3797 20.694C73.7557 20.958 73.0657 21.09 72.3097 21.09ZM83.191 24.582C82.327 24.582 81.499 24.456 80.707 24.204C79.915 23.952 79.273 23.592 78.781 23.124L79.429 22.152C79.873 22.548 80.419 22.86 81.067 23.088C81.727 23.328 82.423 23.448 83.155 23.448C84.355 23.448 85.237 23.166 85.801 22.602C86.365 22.05 86.647 21.186 86.647 20.01V17.652L86.827 16.032L86.701 14.412V11.55H87.925V19.848C87.925 21.48 87.523 22.674 86.719 23.43C85.927 24.198 84.751 24.582 83.191 24.582ZM82.957 20.64C82.057 20.64 81.247 20.448 80.527 20.064C79.807 19.668 79.237 19.122 78.817 18.426C78.409 17.73 78.205 16.932 78.205 16.032C78.205 15.132 78.409 14.34 78.817 13.656C79.237 12.96 79.807 12.42 80.527 12.036C81.247 11.652 82.057 11.46 82.957 11.46C83.797 11.46 84.553 11.634 85.225 11.982C85.897 12.33 86.431 12.846 86.827 13.53C87.223 14.214 87.421 15.048 87.421 16.032C87.421 17.016 87.223 17.85 86.827 18.534C86.431 19.218 85.897 19.74 85.225 20.1C84.553 20.46 83.797 20.64 82.957 20.64ZM83.083 19.506C83.779 19.506 84.397 19.362 84.937 19.074C85.477 18.774 85.903 18.366 86.215 17.85C86.527 17.322 86.683 16.716 86.683 16.032C86.683 15.348 86.527 14.748 86.215 14.232C85.903 13.716 85.477 13.314 84.937 13.026C84.397 12.726 83.779 12.576 83.083 12.576C82.399 12.576 81.781 12.726 81.229 13.026C80.689 13.314 80.263 13.716 79.951 14.232C79.651 14.748 79.501 15.348 79.501 16.032C79.501 16.716 79.651 17.322 79.951 17.85C80.263 18.366 80.689 18.774 81.229 19.074C81.781 19.362 82.399 19.506 83.083 19.506ZM97.4032 21V18.912L97.3492 18.57V15.078C97.3492 14.274 97.1212 13.656 96.6652 13.224C96.2212 12.792 95.5552 12.576 94.6672 12.576C94.0552 12.576 93.4732 12.678 92.9212 12.882C92.3692 13.086 91.9012 13.356 91.5172 13.692L90.9412 12.738C91.4212 12.33 91.9972 12.018 92.6692 11.802C93.3412 11.574 94.0492 11.46 94.7932 11.46C96.0172 11.46 96.9592 11.766 97.6192 12.378C98.2912 12.978 98.6272 13.896 98.6272 15.132V21H97.4032ZM94.1452 21.09C93.4372 21.09 92.8192 20.976 92.2912 20.748C91.7752 20.508 91.3792 20.184 91.1032 19.776C90.8272 19.356 90.6892 18.876 90.6892 18.336C90.6892 17.844 90.8032 17.4 91.0312 17.004C91.2712 16.596 91.6552 16.272 92.1832 16.032C92.7232 15.78 93.4432 15.654 94.3432 15.654H97.6012V16.608H94.3792C93.4672 16.608 92.8312 16.77 92.4712 17.094C92.1232 17.418 91.9492 17.82 91.9492 18.3C91.9492 18.84 92.1592 19.272 92.5792 19.596C92.9992 19.92 93.5872 20.082 94.3432 20.082C95.0632 20.082 95.6812 19.92 96.1972 19.596C96.7252 19.26 97.1092 18.78 97.3492 18.156L97.6372 19.038C97.3972 19.662 96.9772 20.16 96.3772 20.532C95.7892 20.904 95.0452 21.09 94.1452 21.09ZM113.906 11.46C114.674 11.46 115.34 11.61 115.904 11.91C116.48 12.198 116.924 12.642 117.236 13.242C117.56 13.842 117.722 14.598 117.722 15.51V21H116.444V15.636C116.444 14.64 116.204 13.89 115.724 13.386C115.256 12.87 114.59 12.612 113.726 12.612C113.078 12.612 112.514 12.75 112.034 13.026C111.566 13.29 111.2 13.68 110.936 14.196C110.684 14.7 110.558 15.312 110.558 16.032V21H109.28V15.636C109.28 14.64 109.04 13.89 108.56 13.386C108.08 12.87 107.408 12.612 106.544 12.612C105.908 12.612 105.35 12.75 104.87 13.026C104.39 13.29 104.018 13.68 103.754 14.196C103.502 14.7 103.376 15.312 103.376 16.032V21H102.098V11.55H103.322V14.106L103.124 13.656C103.412 12.972 103.874 12.438 104.51 12.054C105.158 11.658 105.92 11.46 106.796 11.46C107.72 11.46 108.506 11.694 109.154 12.162C109.802 12.618 110.222 13.308 110.414 14.232L109.91 14.034C110.186 13.266 110.672 12.648 111.368 12.18C112.076 11.7 112.922 11.46 113.906 11.46ZM125.04 21.09C124.128 21.09 123.306 20.886 122.574 20.478C121.854 20.058 121.284 19.488 120.864 18.768C120.444 18.036 120.234 17.202 120.234 16.266C120.234 15.318 120.444 14.484 120.864 13.764C121.284 13.044 121.854 12.48 122.574 12.072C123.294 11.664 124.116 11.46 125.04 11.46C125.976 11.46 126.804 11.664 127.524 12.072C128.256 12.48 128.826 13.044 129.234 13.764C129.654 14.484 129.864 15.318 129.864 16.266C129.864 17.202 129.654 18.036 129.234 18.768C128.826 19.488 128.256 20.058 127.524 20.478C126.792 20.886 125.964 21.09 125.04 21.09ZM125.04 19.956C125.724 19.956 126.33 19.806 126.858 19.506C127.386 19.194 127.8 18.762 128.1 18.21C128.412 17.646 128.568 16.998 128.568 16.266C128.568 15.522 128.412 14.874 128.1 14.322C127.8 13.77 127.386 13.344 126.858 13.044C126.33 12.732 125.73 12.576 125.058 12.576C124.386 12.576 123.786 12.732 123.258 13.044C122.73 13.344 122.31 13.77 121.998 14.322C121.686 14.874 121.53 15.522 121.53 16.266C121.53 16.998 121.686 17.646 121.998 18.21C122.31 18.762 122.73 19.194 123.258 19.506C123.786 19.806 124.38 19.956 125.04 19.956ZM135.011 21.09C134.231 21.09 133.493 20.982 132.797 20.766C132.101 20.538 131.555 20.256 131.159 19.92L131.735 18.912C132.119 19.2 132.611 19.452 133.211 19.668C133.811 19.872 134.441 19.974 135.101 19.974C136.001 19.974 136.649 19.836 137.045 19.56C137.441 19.272 137.639 18.894 137.639 18.426C137.639 18.078 137.525 17.808 137.297 17.616C137.081 17.412 136.793 17.262 136.433 17.166C136.073 17.058 135.671 16.968 135.227 16.896C134.783 16.824 134.339 16.74 133.895 16.644C133.463 16.548 133.067 16.41 132.707 16.23C132.347 16.038 132.053 15.78 131.825 15.456C131.609 15.132 131.501 14.7 131.501 14.16C131.501 13.644 131.645 13.182 131.933 12.774C132.221 12.366 132.641 12.048 133.193 11.82C133.757 11.58 134.441 11.46 135.245 11.46C135.857 11.46 136.469 11.544 137.081 11.712C137.693 11.868 138.197 12.078 138.593 12.342L138.035 13.368C137.615 13.08 137.165 12.876 136.685 12.756C136.205 12.624 135.725 12.558 135.245 12.558C134.393 12.558 133.763 12.708 133.355 13.008C132.959 13.296 132.761 13.668 132.761 14.124C132.761 14.484 132.869 14.766 133.085 14.97C133.313 15.174 133.607 15.336 133.967 15.456C134.339 15.564 134.741 15.654 135.173 15.726C135.617 15.798 136.055 15.888 136.487 15.996C136.931 16.092 137.333 16.23 137.693 16.41C138.065 16.578 138.359 16.824 138.575 17.148C138.803 17.46 138.917 17.874 138.917 18.39C138.917 18.942 138.761 19.422 138.449 19.83C138.149 20.226 137.705 20.538 137.117 20.766C136.541 20.982 135.839 21.09 135.011 21.09ZM149.987 21.09C149.003 21.09 148.139 20.886 147.395 20.478C146.651 20.058 146.069 19.488 145.649 18.768C145.229 18.036 145.019 17.202 145.019 16.266C145.019 15.33 145.217 14.502 145.613 13.782C146.021 13.062 146.573 12.498 147.269 12.09C147.977 11.67 148.769 11.46 149.645 11.46C150.533 11.46 151.319 11.664 152.003 12.072C152.699 12.468 153.245 13.032 153.641 13.764C154.037 14.484 154.235 15.318 154.235 16.266C154.235 16.326 154.229 16.392 154.217 16.464C154.217 16.524 154.217 16.59 154.217 16.662H145.991V15.708H153.533L153.029 16.086C153.029 15.402 152.879 14.796 152.579 14.268C152.291 13.728 151.895 13.308 151.391 13.008C150.887 12.708 150.305 12.558 149.645 12.558C148.997 12.558 148.415 12.708 147.899 13.008C147.383 13.308 146.981 13.728 146.693 14.268C146.405 14.808 146.261 15.426 146.261 16.122V16.32C146.261 17.04 146.417 17.676 146.729 18.228C147.053 18.768 147.497 19.194 148.061 19.506C148.637 19.806 149.291 19.956 150.023 19.956C150.599 19.956 151.133 19.854 151.625 19.65C152.129 19.446 152.561 19.134 152.921 18.714L153.641 19.542C153.221 20.046 152.693 20.43 152.057 20.694C151.433 20.958 150.743 21.09 149.987 21.09ZM168.645 11.46C169.413 11.46 170.079 11.61 170.643 11.91C171.219 12.198 171.663 12.642 171.975 13.242C172.299 13.842 172.461 14.598 172.461 15.51V21H171.183V15.636C171.183 14.64 170.943 13.89 170.463 13.386C169.995 12.87 169.329 12.612 168.465 12.612C167.817 12.612 167.253 12.75 166.773 13.026C166.305 13.29 165.939 13.68 165.675 14.196C165.423 14.7 165.297 15.312 165.297 16.032V21H164.019V15.636C164.019 14.64 163.779 13.89 163.299 13.386C162.819 12.87 162.147 12.612 161.283 12.612C160.647 12.612 160.089 12.75 159.609 13.026C159.129 13.29 158.757 13.68 158.493 14.196C158.241 14.7 158.115 15.312 158.115 16.032V21H156.837V11.55H158.061V14.106L157.863 13.656C158.151 12.972 158.613 12.438 159.249 12.054C159.897 11.658 160.659 11.46 161.535 11.46C162.459 11.46 163.245 11.694 163.893 12.162C164.541 12.618 164.961 13.308 165.153 14.232L164.649 14.034C164.925 13.266 165.411 12.648 166.107 12.18C166.815 11.7 167.661 11.46 168.645 11.46ZM32.77 51.09C31.882 51.09 31.198 50.85 30.718 50.37C30.238 49.89 29.998 49.212 29.998 48.336V39.462H31.276V48.264C31.276 48.816 31.414 49.242 31.69 49.542C31.978 49.842 32.386 49.992 32.914 49.992C33.478 49.992 33.946 49.83 34.318 49.506L34.768 50.424C34.516 50.652 34.21 50.82 33.85 50.928C33.502 51.036 33.142 51.09 32.77 51.09ZM28.306 42.612V41.55H34.156V42.612H28.306ZM40.6125 51.09C39.7005 51.09 38.8785 50.886 38.1465 50.478C37.4265 50.058 36.8565 49.488 36.4365 48.768C36.0165 48.036 35.8065 47.202 35.8065 46.266C35.8065 45.318 36.0165 44.484 36.4365 43.764C36.8565 43.044 37.4265 42.48 38.1465 42.072C38.8665 41.664 39.6885 41.46 40.6125 41.46C41.5485 41.46 42.3765 41.664 43.0965 42.072C43.8285 42.48 44.3985 43.044 44.8065 43.764C45.2265 44.484 45.4365 45.318 45.4365 46.266C45.4365 47.202 45.2265 48.036 44.8065 48.768C44.3985 49.488 43.8285 50.058 43.0965 50.478C42.3645 50.886 41.5365 51.09 40.6125 51.09ZM40.6125 49.956C41.2965 49.956 41.9025 49.806 42.4305 49.506C42.9585 49.194 43.3725 48.762 43.6725 48.21C43.9845 47.646 44.1405 46.998 44.1405 46.266C44.1405 45.522 43.9845 44.874 43.6725 44.322C43.3725 43.77 42.9585 43.344 42.4305 43.044C41.9025 42.732 41.3025 42.576 40.6305 42.576C39.9585 42.576 39.3585 42.732 38.8305 43.044C38.3025 43.344 37.8825 43.77 37.5705 44.322C37.2585 44.874 37.1025 45.522 37.1025 46.266C37.1025 46.998 37.2585 47.646 37.5705 48.21C37.8825 48.762 38.3025 49.194 38.8305 49.506C39.3585 49.806 39.9525 49.956 40.6125 49.956ZM51.8077 51.09C50.9077 51.09 50.0977 50.886 49.3777 50.478C48.6697 50.07 48.1117 49.506 47.7037 48.786C47.2957 48.054 47.0917 47.214 47.0917 46.266C47.0917 45.306 47.2957 44.466 47.7037 43.746C48.1117 43.026 48.6697 42.468 49.3777 42.072C50.0977 41.664 50.9077 41.46 51.8077 41.46C52.6357 41.46 53.3737 41.646 54.0217 42.018C54.6817 42.39 55.2037 42.936 55.5877 43.656C55.9837 44.364 56.1817 45.234 56.1817 46.266C56.1817 47.286 55.9897 48.156 55.6057 48.876C55.2217 49.596 54.6997 50.148 54.0397 50.532C53.3917 50.904 52.6477 51.09 51.8077 51.09ZM51.8977 49.956C52.5697 49.956 53.1697 49.806 53.6977 49.506C54.2377 49.194 54.6577 48.762 54.9577 48.21C55.2697 47.646 55.4257 46.998 55.4257 46.266C55.4257 45.522 55.2697 44.874 54.9577 44.322C54.6577 43.77 54.2377 43.344 53.6977 43.044C53.1697 42.732 52.5697 42.576 51.8977 42.576C51.2377 42.576 50.6437 42.732 50.1157 43.044C49.5877 43.344 49.1677 43.77 48.8557 44.322C48.5437 44.874 48.3877 45.522 48.3877 46.266C48.3877 46.998 48.5437 47.646 48.8557 48.21C49.1677 48.762 49.5877 49.194 50.1157 49.506C50.6437 49.806 51.2377 49.956 51.8977 49.956ZM55.4617 51V48.156L55.5877 46.248L55.4077 44.34V37.644H56.6857V51H55.4617ZM66.1669 51V48.912L66.1129 48.57V45.078C66.1129 44.274 65.8849 43.656 65.4289 43.224C64.9849 42.792 64.3189 42.576 63.4309 42.576C62.8189 42.576 62.2369 42.678 61.6849 42.882C61.1329 43.086 60.6649 43.356 60.2809 43.692L59.7049 42.738C60.1849 42.33 60.7609 42.018 61.4329 41.802C62.1049 41.574 62.8129 41.46 63.5569 41.46C64.7809 41.46 65.7229 41.766 66.3829 42.378C67.0549 42.978 67.3909 43.896 67.3909 45.132V51H66.1669ZM62.9089 51.09C62.2009 51.09 61.5829 50.976 61.0549 50.748C60.5389 50.508 60.1429 50.184 59.8669 49.776C59.5909 49.356 59.4529 48.876 59.4529 48.336C59.4529 47.844 59.5669 47.4 59.7949 47.004C60.0349 46.596 60.4189 46.272 60.9469 46.032C61.4869 45.78 62.2069 45.654 63.1069 45.654H66.3649V46.608H63.1429C62.2309 46.608 61.5949 46.77 61.2349 47.094C60.8869 47.418 60.7129 47.82 60.7129 48.3C60.7129 48.84 60.9229 49.272 61.3429 49.596C61.7629 49.92 62.3509 50.082 63.1069 50.082C63.8269 50.082 64.4449 49.92 64.9609 49.596C65.4889 49.26 65.8729 48.78 66.1129 48.156L66.4009 49.038C66.1609 49.662 65.7409 50.16 65.1409 50.532C64.5529 50.904 63.8089 51.09 62.9089 51.09Z" fill="white"/>
<path d="M73.9527 51L81.7527 33.5H85.7527L93.5777 51H89.3277L82.9277 35.55H84.5277L78.1027 51H73.9527ZM77.8527 47.25L78.9277 44.175H87.9277L89.0277 47.25H77.8527ZM95.1184 51V37.55H98.8434V41.35L98.3184 40.25C98.7184 39.3 99.36 38.5833 100.243 38.1C101.127 37.6 102.202 37.35 103.468 37.35V40.95C103.302 40.9333 103.152 40.925 103.018 40.925C102.885 40.9083 102.743 40.9 102.593 40.9C101.527 40.9 100.66 41.2083 99.9934 41.825C99.3434 42.425 99.0184 43.3667 99.0184 44.65V51H95.1184ZM113.158 51V48.375L112.908 47.8V43.1C112.908 42.2667 112.65 41.6167 112.133 41.15C111.633 40.6833 110.858 40.45 109.808 40.45C109.092 40.45 108.383 40.5667 107.683 40.8C107 41.0167 106.417 41.3167 105.933 41.7L104.533 38.975C105.267 38.4583 106.15 38.0583 107.183 37.775C108.217 37.4917 109.267 37.35 110.333 37.35C112.383 37.35 113.975 37.8333 115.108 38.8C116.242 39.7667 116.808 41.275 116.808 43.325V51H113.158ZM109.058 51.2C108.008 51.2 107.108 51.025 106.358 50.675C105.608 50.3083 105.033 49.8167 104.633 49.2C104.233 48.5833 104.033 47.8917 104.033 47.125C104.033 46.325 104.225 45.625 104.608 45.025C105.008 44.425 105.633 43.9583 106.483 43.625C107.333 43.275 108.442 43.1 109.808 43.1H113.383V45.375H110.233C109.317 45.375 108.683 45.525 108.333 45.825C108 46.125 107.833 46.5 107.833 46.95C107.833 47.45 108.025 47.85 108.408 48.15C108.808 48.4333 109.35 48.575 110.033 48.575C110.683 48.575 111.267 48.425 111.783 48.125C112.3 47.8083 112.675 47.35 112.908 46.75L113.508 48.55C113.225 49.4167 112.708 50.075 111.958 50.525C111.208 50.975 110.242 51.2 109.058 51.2ZM126.936 51.2C125.486 51.2 124.194 50.9083 123.061 50.325C121.927 49.725 121.036 48.9 120.386 47.85C119.752 46.8 119.436 45.6083 119.436 44.275C119.436 42.925 119.752 41.7333 120.386 40.7C121.036 39.65 121.927 38.8333 123.061 38.25C124.194 37.65 125.486 37.35 126.936 37.35C128.352 37.35 129.586 37.65 130.636 38.25C131.686 38.8333 132.461 39.675 132.961 40.775L129.936 42.4C129.586 41.7667 129.144 41.3 128.611 41C128.094 40.7 127.527 40.55 126.911 40.55C126.244 40.55 125.644 40.7 125.111 41C124.577 41.3 124.152 41.725 123.836 42.275C123.536 42.825 123.386 43.4917 123.386 44.275C123.386 45.0583 123.536 45.725 123.836 46.275C124.152 46.825 124.577 47.25 125.111 47.55C125.644 47.85 126.244 48 126.911 48C127.527 48 128.094 47.8583 128.611 47.575C129.144 47.275 129.586 46.8 129.936 46.15L132.961 47.8C132.461 48.8833 131.686 49.725 130.636 50.325C129.586 50.9083 128.352 51.2 126.936 51.2ZM143.456 51V48.375L143.206 47.8V43.1C143.206 42.2667 142.948 41.6167 142.431 41.15C141.931 40.6833 141.156 40.45 140.106 40.45C139.39 40.45 138.681 40.5667 137.981 40.8C137.298 41.0167 136.715 41.3167 136.231 41.7L134.831 38.975C135.565 38.4583 136.448 38.0583 137.481 37.775C138.515 37.4917 139.565 37.35 140.631 37.35C142.681 37.35 144.273 37.8333 145.406 38.8C146.54 39.7667 147.106 41.275 147.106 43.325V51H143.456ZM139.356 51.2C138.306 51.2 137.406 51.025 136.656 50.675C135.906 50.3083 135.331 49.8167 134.931 49.2C134.531 48.5833 134.331 47.8917 134.331 47.125C134.331 46.325 134.523 45.625 134.906 45.025C135.306 44.425 135.931 43.9583 136.781 43.625C137.631 43.275 138.74 43.1 140.106 43.1H143.681V45.375H140.531C139.615 45.375 138.981 45.525 138.631 45.825C138.298 46.125 138.131 46.5 138.131 46.95C138.131 47.45 138.323 47.85 138.706 48.15C139.106 48.4333 139.648 48.575 140.331 48.575C140.981 48.575 141.565 48.425 142.081 48.125C142.598 47.8083 142.973 47.35 143.206 46.75L143.806 48.55C143.523 49.4167 143.006 50.075 142.256 50.525C141.506 50.975 140.54 51.2 139.356 51.2ZM149.636 56.05C149.036 56.05 148.461 55.9833 147.911 55.85C147.361 55.7333 146.894 55.55 146.511 55.3L147.561 52.475C148.011 52.7917 148.561 52.95 149.211 52.95C149.694 52.95 150.078 52.7833 150.361 52.45C150.661 52.1333 150.811 51.65 150.811 51V37.55H154.711V50.975C154.711 52.525 154.269 53.7583 153.386 54.675C152.503 55.5917 151.253 56.05 149.636 56.05ZM152.761 35.675C152.044 35.675 151.461 35.4667 151.011 35.05C150.561 34.6333 150.336 34.1167 150.336 33.5C150.336 32.8833 150.561 32.3667 151.011 31.95C151.461 31.5333 152.044 31.325 152.761 31.325C153.478 31.325 154.061 31.525 154.511 31.925C154.961 32.3083 155.186 32.8083 155.186 33.425C155.186 34.075 154.961 34.6167 154.511 35.05C154.078 35.4667 153.494 35.675 152.761 35.675ZM163.977 51.2C162.86 51.2 161.86 50.9833 160.977 50.55C160.11 50.1167 159.435 49.4583 158.952 48.575C158.469 47.675 158.227 46.5333 158.227 45.15V37.55H162.127V44.575C162.127 45.6917 162.36 46.5167 162.827 47.05C163.31 47.5667 163.985 47.825 164.852 47.825C165.452 47.825 165.985 47.7 166.452 47.45C166.919 47.1833 167.285 46.7833 167.552 46.25C167.819 45.7 167.952 45.0167 167.952 44.2V37.55H171.852V51H168.152V47.3L168.827 48.375C168.377 49.3083 167.71 50.0167 166.827 50.5C165.96 50.9667 165.01 51.2 163.977 51.2Z" fill="#F70000"/>
</svg>
