<svg width="54" height="45" viewBox="0 0 54 45" fill="none" xmlns="http://www.w3.org/2000/svg">
<path fill-rule="evenodd" clip-rule="evenodd" d="M27.33 8.75278H42.2782H43.13C44.1192 8.75278 44.7403 8.69657 45.716 8.41635C49.5287 7.32171 52.5267 4.14941 53.4051 0.264038H39.3016H37.3909C36.7501 0.264038 36.3419 0.290707 35.7043 0.428562C31.5686 1.32175 28.2601 4.63764 27.33 8.75278V8.75278ZM23.7737 44.0362H33.9688H34.2154H38.1487C46.5382 44.0362 53.4051 37.1693 53.4051 28.7795V28.7791C53.4051 20.4393 46.6211 13.6056 38.2985 13.5244C38.2493 13.5231 38.1992 13.5223 38.1487 13.5223H35.1356H27.5959C28.4287 17.2058 31.1444 20.196 34.6679 21.417V16.7352L37.7319 19.736C40.9235 22.862 44.5495 25.3688 48.6056 27.2434L51.9531 28.7914L48.6758 30.4821C44.6521 32.5578 41.0306 35.2094 37.681 38.2451L34.6679 40.9763V35.5475H34.2154H33.9688H33.7558C33.1367 35.5475 32.7289 35.584 32.1135 35.719C27.9938 36.6237 24.7017 39.9322 23.7737 44.0362V44.0362Z" fill="#808080"/>
<path fill-rule="evenodd" clip-rule="evenodd" d="M16.5211 0.264038C8.57972 0.264038 1.91181 5.99322 0.443407 13.5223L0.434382 13.5699L0.425357 13.6175C0.407305 13.7123 0.390483 13.8075 0.374072 13.9026V13.9031L0.365868 13.9511L0.352326 14.0339C0.338786 14.1152 0.326481 14.1968 0.314583 14.2785C0.305146 14.3425 0.296114 14.4065 0.287498 14.4709L0.264109 14.6506C0.254262 14.7318 0.244829 14.8131 0.236213 14.8947L0.221037 15.0371C0.211191 15.138 0.202158 15.2389 0.193952 15.3403L0.186981 15.4289C0.178365 15.545 0.170978 15.6611 0.164824 15.778L0.16236 15.8273C0.155795 15.959 0.150877 16.0907 0.147185 16.2228V16.2232C0.143492 16.3631 0.141846 16.503 0.141846 16.6437C0.141846 25.6527 7.51299 33.0238 16.5211 33.0238H17.5887H17.985H20.8619H36.4707V36.9096C39.9503 33.7558 43.6765 31.0323 47.8491 28.88C43.5924 26.9119 39.8112 24.2955 36.4707 21.0239V24.5351H33.6192C31.3824 23.5028 29.4216 21.9388 27.9171 19.9888H27.9167C26.6543 18.353 25.7135 16.4452 25.1994 14.3527C25.1769 14.2616 25.1551 14.1706 25.1346 14.0787L25.0087 13.5223H12.166C11.5309 14.4044 11.1551 15.4835 11.1551 16.6441C11.1551 19.5912 13.5749 22.011 16.522 22.011H21.8105C22.3221 23.0052 22.9798 23.8914 23.699 24.5351H22.3664H17.985H16.522C12.182 24.5351 8.631 20.9841 8.631 16.6441V16.6437C8.631 16.5083 8.63469 16.3742 8.64166 16.2408V16.2392L8.64208 16.231C8.64495 16.1694 8.64905 16.1083 8.65356 16.0472L8.65438 16.039L8.6552 16.0267C8.65972 15.9688 8.66505 15.911 8.67079 15.8535L8.67367 15.8277C8.67942 15.7682 8.68638 15.7095 8.69377 15.6504L8.69583 15.6353C8.70363 15.5745 8.71223 15.5142 8.72125 15.4543L8.72372 15.4383C8.73274 15.3809 8.74219 15.3234 8.75245 15.2664L8.75984 15.2274C8.76927 15.1762 8.7787 15.1245 8.78937 15.0736L8.79594 15.0408C8.80743 14.9866 8.81933 14.9324 8.83164 14.8787L8.83861 14.8496C8.84969 14.8028 8.86117 14.756 8.87307 14.7097L8.88825 14.6502L8.92395 14.5193L8.94158 14.4573L8.97524 14.3453L9.00026 14.2649L9.03185 14.1681L9.06056 14.0832L9.09954 13.9732L9.12745 13.8969L9.13154 13.8862L9.14919 13.8407L9.16683 13.7947L9.19925 13.7127L9.20293 13.7032L9.22181 13.6581L9.24028 13.6126H9.24068L9.27351 13.535C10.4867 10.7291 13.284 8.75278 16.522 8.75278H24.5401H24.8064C25.8091 4.31639 28.4538 1.30492 31.8087 0.266492L16.5211 0.264038V0.264038Z" fill="#F70000"/>
</svg>
