<svg width="206" height="24" viewBox="0 0 206 24" fill="none" xmlns="http://www.w3.org/2000/svg">
<path d="M0 22.1688V1.72913C0 0.994772 0.599051 0.396094 1.33304 0.396094H4.01461C4.7486 0.396094 5.34765 0.994772 5.34765 1.72913V22.1688C5.34765 22.9028 4.7486 23.5019 4.01461 23.5019H1.33304C0.599051 23.5019 0 22.9028 0 22.1688V22.1688ZM40.1242 9.63402L33.7081 20.4079C33.4613 20.8225 33.0467 21.0588 32.5633 21.0588H31.6603C31.1815 21.0588 30.7703 20.8278 30.5216 20.4193L24.1447 9.94809V22.1688C24.1447 22.9028 23.5461 23.5019 22.8117 23.5019H20.4608C19.7265 23.5019 19.1278 22.9028 19.1278 22.1688V1.72913C19.1278 0.994772 19.7265 0.396094 20.4608 0.396094H22.7981C23.2785 0.396094 23.6908 0.629671 23.9391 1.04088L32.2057 14.7428L40.3276 1.0492C40.5747 0.633071 40.9905 0.396094 41.4743 0.396094H43.776C44.5085 0.396094 45.1068 0.992509 45.109 1.72498L45.1669 22.1647C45.168 22.5324 45.0376 22.8499 44.7776 23.1103C44.5183 23.3703 44.2016 23.5019 43.8338 23.5019H41.4837C40.7509 23.5019 40.1526 22.9047 40.1507 22.1715L40.1242 9.63402V9.63402ZM64.2985 17.1311V22.1688C64.2985 22.9028 63.6994 23.5019 62.9654 23.5019H60.2838C59.5499 23.5019 58.9508 22.9028 58.9508 22.1688V1.72913C58.9508 0.994772 59.5499 0.396094 60.2838 0.396094H68.9522C71.0207 0.396094 72.8031 0.732099 74.2998 1.40297C75.7958 2.07421 76.9512 3.03647 77.7653 4.2909C78.5798 5.54532 78.9865 7.04202 78.9865 8.78022C78.9865 10.4965 78.5798 11.9822 77.7653 13.2363C76.9512 14.4907 75.7958 15.4537 74.2998 16.1246C72.8035 16.7958 71.02 17.1311 68.9522 17.1311H64.2985V17.1311ZM64.2985 4.75313V12.774H68.6555C70.3056 12.774 71.5378 12.4222 72.3519 11.718C73.166 11.0139 73.5734 10.0343 73.5734 8.78022C73.5734 7.50388 73.166 6.51288 72.3519 5.80913C71.5385 5.10576 70.3053 4.75313 68.6555 4.75313H64.2985V4.75313ZM102.636 23.898C100.81 23.898 99.1207 23.6009 97.5693 23.0067C96.0181 22.4122 94.6753 21.5762 93.5422 20.4979C92.4091 19.42 91.5288 18.1542 90.9018 16.7025C90.2748 15.2496 89.9607 13.6653 89.9607 11.9494C89.9607 10.2327 90.2748 8.64794 90.9018 7.19623C91.5288 5.74338 92.4144 4.47836 93.5588 3.39968C94.7032 2.32176 96.0454 1.48536 97.5855 0.891216C99.126 0.297074 100.798 0 102.603 0C104.429 0 106.107 0.297074 107.637 0.891216C109.166 1.48536 110.497 2.32176 111.631 3.39968C112.764 4.47836 113.649 5.7377 114.288 7.17921C114.926 8.62072 115.245 10.2104 115.245 11.9494C115.245 13.6653 114.926 15.2553 114.288 16.7187C113.649 18.1822 112.764 19.4472 111.631 20.5145C110.497 21.5819 109.166 22.4122 107.637 23.0067C106.107 23.6009 104.44 23.898 102.636 23.898V23.898ZM102.603 19.3429C103.637 19.3429 104.589 19.1667 105.458 18.8149C106.328 18.4626 107.092 17.9565 107.752 17.2963C108.412 16.636 108.924 15.8547 109.287 14.9529C109.65 14.0504 109.832 13.0496 109.832 11.9494C109.832 10.8484 109.65 9.84756 109.287 8.94538C108.924 8.04321 108.418 7.2616 107.769 6.6017C107.12 5.94179 106.355 5.43534 105.475 5.08346C104.595 4.73121 103.637 4.55509 102.603 4.55509C101.569 4.55509 100.617 4.73121 99.7482 5.08346C98.8785 5.43534 98.1143 5.94179 97.4536 6.6017C96.7937 7.2616 96.2819 8.04321 95.9187 8.94538C95.5559 9.84756 95.3745 10.8484 95.3745 11.9494C95.3745 13.0273 95.5559 14.0232 95.9187 14.9359C96.2819 15.8491 96.788 16.636 97.437 17.2963C98.0863 17.9565 98.8513 18.4626 99.7311 18.8149C100.611 19.1667 101.569 19.3429 102.603 19.3429ZM137.825 17.0638C137.758 17.0642 137.644 17.0653 137.574 17.0653H132.92V22.1688C132.92 22.9028 132.322 23.5019 131.587 23.5019H128.906C128.172 23.5019 127.573 22.9028 127.573 22.1688V1.72913C127.573 0.994772 128.172 0.396094 128.906 0.396094H137.574C139.643 0.396094 141.425 0.732099 142.922 1.40297C144.418 2.07421 145.573 3.03647 146.387 4.2909C147.202 5.54532 147.609 7.04202 147.609 8.78022C147.609 10.4965 147.202 11.9766 146.387 13.22C145.573 14.4627 144.417 15.4152 142.922 16.0751C142.911 16.0792 142.885 16.0917 142.876 16.0951L146.578 21.4069C146.869 21.8249 146.902 22.334 146.666 22.7856C146.43 23.2373 145.993 23.5019 145.484 23.5019H142.961C142.509 23.5019 142.12 23.2974 141.864 22.9251L137.825 17.0638V17.0638ZM132.92 4.75313V12.8069H137.277C138.928 12.8069 140.16 12.4494 140.974 11.7347C141.788 11.0196 142.195 10.0343 142.195 8.78022C142.195 7.50388 141.788 6.51288 140.974 5.80913C140.16 5.10576 138.927 4.75313 137.277 4.75313H132.92ZM164.59 22.1688V4.75313H158.529C157.795 4.75313 157.196 4.15446 157.196 3.42009V1.72913C157.196 0.994772 157.795 0.396094 158.529 0.396094H175.998C176.733 0.396094 177.331 0.994772 177.331 1.72913V3.42009C177.331 4.15446 176.733 4.75313 175.998 4.75313H169.937V22.1688C169.937 22.9028 169.339 23.5019 168.604 23.5019H165.923C165.189 23.5019 164.59 22.9028 164.59 22.1688ZM195.931 23.898C194.082 23.898 192.311 23.6504 190.616 23.1549C189.431 22.8083 188.406 22.3892 187.544 21.8975C186.944 21.5558 186.706 20.8203 186.989 20.1917L187.716 18.5798C187.873 18.2302 188.139 17.9883 188.502 17.8654C188.865 17.7426 189.224 17.7721 189.561 17.9531C190.257 18.3266 191.021 18.6524 191.854 18.9298C193.208 19.381 194.577 19.6071 195.964 19.6071C197.02 19.6071 197.872 19.502 198.522 19.293C199.171 19.084 199.649 18.7929 199.958 18.4184C200.266 18.0446 200.42 17.6156 200.42 17.1311C200.42 16.5146 200.177 16.0252 199.694 15.6624C199.209 15.2992 198.571 15.0021 197.779 14.7712C196.987 14.5398 196.112 14.3203 195.155 14.1112C194.198 13.9019 193.24 13.643 192.283 13.3357C191.326 13.0273 190.452 12.6312 189.659 12.147C188.867 11.6632 188.223 11.0245 187.728 10.2327C187.233 9.4405 186.985 8.42835 186.985 7.19623C186.985 5.87566 187.343 4.67036 188.058 3.58148C188.773 2.49222 189.851 1.62331 191.293 0.973985C192.734 0.324662 194.544 0 196.723 0C198.175 0 199.605 0.170458 201.014 0.51175C201.965 0.742301 202.842 1.05109 203.644 1.43698C204.279 1.74274 204.565 2.48731 204.299 3.13966L203.642 4.7573C203.5 5.1069 203.249 5.3556 202.899 5.49468C202.548 5.63377 202.195 5.62469 201.852 5.46746C201.188 5.16397 200.523 4.91906 199.858 4.73688C198.781 4.43981 197.724 4.2909 196.69 4.2909C195.656 4.2909 194.809 4.41223 194.148 4.65412C193.488 4.89638 193.015 5.2097 192.729 5.59521C192.443 5.98035 192.3 6.42558 192.3 6.93166C192.3 7.5258 192.542 8.00467 193.026 8.3675C193.51 8.73071 194.148 9.02249 194.94 9.24246C195.733 9.46205 196.607 9.68239 197.565 9.90236C198.522 10.1227 199.479 10.3756 200.436 10.6617C201.393 10.9478 202.268 11.3329 203.06 11.8171C203.853 12.3008 204.496 12.9396 204.991 13.7314C205.486 14.5236 205.734 15.5252 205.734 16.7354C205.734 18.0336 205.371 19.2215 204.644 20.2998C203.919 21.3785 202.835 22.2474 201.393 22.9073C199.952 23.568 198.131 23.898 195.931 23.898V23.898Z" fill="white"/>
</svg>
