<svg width="130" height="132" viewBox="0 0 130 132" fill="none" xmlns="http://www.w3.org/2000/svg">
<path fill-rule="evenodd" clip-rule="evenodd" d="M11.1627 98.5026C1.70001 75.5863 11.8326 56.578 34.59 47.1368C43.9726 43.2445 50.5224 42.218 55.3982 37.2642V52.1715C60.265 45.2681 65.9432 39.8089 77.2251 40.4413V18.7619C77.2251 6.21236 59.5277 1.00869 49.0685 0.645778C39.2102 0.303378 34.1062 0.426102 25.8595 6.6845C22.9202 8.9151 20.4445 11.649 19.1172 14.7883C17.743 18.0379 17.4162 22.9847 20.0418 25.8088C21.2512 27.11 22.964 27.9219 24.8631 27.9219C28.5278 27.9219 31.4986 24.899 31.4986 21.1701C31.4986 17.0366 29.3674 17.162 28.1132 14.8632C27.3532 13.4701 27.0622 11.9276 27.0627 11.1371C27.0672 4.96321 34.3183 2.16458 39.3921 1.44611C45.4015 0.595111 51.8137 1.8504 53.5432 4.82909C55.3048 8.03359 55.3982 12.0954 55.3982 15.6335V37.1038C41.3209 46.6136 15.2687 42.636 5.80968 54.7653C-3.12059 66.2165 0.514671 88.7334 11.1627 98.5026ZM77.2251 92.7279C79.9906 95.7676 83.0506 98.4547 86.9408 100.146C92.8771 102.726 97.4605 103.106 101.962 97.9933C104.807 94.7619 107.258 90.1673 108.709 86.7712C113.328 75.9578 113.676 61.397 108.801 48.883C114.258 57.7593 119.449 62.7939 125.026 69.5457C128.626 73.9048 129.856 78.2296 128.947 82.6033C127.562 89.2636 122.153 94.4043 116.586 97.8478C103.06 106.215 87.0977 106.473 77.2251 93.0222V128.492C77.2251 130.128 75.8914 131.461 74.2564 131.461H45.5761C54.8891 129.206 55.3982 122.619 55.3982 118.198V54.0409C61.6431 48.1331 68.9633 43.1697 77.2251 43.8615V92.7279Z" fill="#FF607B"/>
</svg>
