<svg width="242" height="62" viewBox="0 0 242 62" fill="none" xmlns="http://www.w3.org/2000/svg">
<path d="M14 28C14 31.866 10.866 35 7 35C3.13401 35 0 31.866 0 28C0 24.134 3.13401 21 7 21C10.866 21 14 24.134 14 28ZM2.29203 28C2.29203 30.6001 4.39986 32.708 7 32.708C9.60014 32.708 11.708 30.6001 11.708 28C11.708 25.3999 9.60014 23.292 7 23.292C4.39986 23.292 2.29203 25.3999 2.29203 28Z" fill="#F70000"/>
<path d="M30.052 21V8.4H34.768C35.836 8.4 36.754 8.574 37.522 8.922C38.29 9.258 38.878 9.75 39.286 10.398C39.706 11.034 39.916 11.808 39.916 12.72C39.916 13.608 39.706 14.376 39.286 15.024C38.878 15.66 38.29 16.152 37.522 16.5C36.754 16.848 35.836 17.022 34.768 17.022H30.79L31.384 16.392V21H30.052ZM31.384 16.5L30.79 15.852H34.732C35.992 15.852 36.946 15.582 37.594 15.042C38.254 14.49 38.584 13.716 38.584 12.72C38.584 11.712 38.254 10.932 37.594 10.38C36.946 9.828 35.992 9.552 34.732 9.552H30.79L31.384 8.922V16.5ZM48.3603 21V18.912L48.3063 18.57V15.078C48.3063 14.274 48.0783 13.656 47.6223 13.224C47.1783 12.792 46.5123 12.576 45.6243 12.576C45.0123 12.576 44.4303 12.678 43.8783 12.882C43.3263 13.086 42.8583 13.356 42.4743 13.692L41.8983 12.738C42.3783 12.33 42.9543 12.018 43.6263 11.802C44.2983 11.574 45.0063 11.46 45.7503 11.46C46.9743 11.46 47.9163 11.766 48.5763 12.378C49.2483 12.978 49.5843 13.896 49.5843 15.132V21H48.3603ZM45.1023 21.09C44.3943 21.09 43.7763 20.976 43.2483 20.748C42.7323 20.508 42.3363 20.184 42.0603 19.776C41.7843 19.356 41.6463 18.876 41.6463 18.336C41.6463 17.844 41.7603 17.4 41.9883 17.004C42.2283 16.596 42.6123 16.272 43.1403 16.032C43.6803 15.78 44.4003 15.654 45.3003 15.654H48.5583V16.608H45.3363C44.4243 16.608 43.7883 16.77 43.4283 17.094C43.0803 17.418 42.9062 17.82 42.9062 18.3C42.9062 18.84 43.1163 19.272 43.5363 19.596C43.9563 19.92 44.5443 20.082 45.3003 20.082C46.0203 20.082 46.6383 19.92 47.1543 19.596C47.6823 19.26 48.0663 18.78 48.3063 18.156L48.5943 19.038C48.3543 19.662 47.9343 20.16 47.3343 20.532C46.7463 20.904 46.0023 21.09 45.1023 21.09ZM57.0874 24.582C56.2234 24.582 55.3954 24.456 54.6034 24.204C53.8114 23.952 53.1694 23.592 52.6774 23.124L53.3254 22.152C53.7694 22.548 54.3154 22.86 54.9634 23.088C55.6234 23.328 56.3194 23.448 57.0514 23.448C58.2514 23.448 59.1334 23.166 59.6974 22.602C60.2614 22.05 60.5434 21.186 60.5434 20.01V17.652L60.7234 16.032L60.5974 14.412V11.55H61.8214V19.848C61.8214 21.48 61.4194 22.674 60.6154 23.43C59.8234 24.198 58.6474 24.582 57.0874 24.582ZM56.8534 20.64C55.9534 20.64 55.1434 20.448 54.4234 20.064C53.7034 19.668 53.1334 19.122 52.7134 18.426C52.3054 17.73 52.1014 16.932 52.1014 16.032C52.1014 15.132 52.3054 14.34 52.7134 13.656C53.1334 12.96 53.7034 12.42 54.4234 12.036C55.1434 11.652 55.9534 11.46 56.8534 11.46C57.6934 11.46 58.4494 11.634 59.1214 11.982C59.7934 12.33 60.3274 12.846 60.7234 13.53C61.1194 14.214 61.3174 15.048 61.3174 16.032C61.3174 17.016 61.1194 17.85 60.7234 18.534C60.3274 19.218 59.7934 19.74 59.1214 20.1C58.4494 20.46 57.6934 20.64 56.8534 20.64ZM56.9794 19.506C57.6754 19.506 58.2934 19.362 58.8334 19.074C59.3734 18.774 59.7994 18.366 60.1114 17.85C60.4234 17.322 60.5794 16.716 60.5794 16.032C60.5794 15.348 60.4234 14.748 60.1114 14.232C59.7994 13.716 59.3734 13.314 58.8334 13.026C58.2934 12.726 57.6754 12.576 56.9794 12.576C56.2954 12.576 55.6774 12.726 55.1254 13.026C54.5854 13.314 54.1594 13.716 53.8474 14.232C53.5474 14.748 53.3974 15.348 53.3974 16.032C53.3974 16.716 53.5474 17.322 53.8474 17.85C54.1594 18.366 54.5854 18.774 55.1254 19.074C55.6774 19.362 56.2954 19.506 56.9794 19.506ZM69.2837 21.09C68.4797 21.09 67.7777 20.94 67.1777 20.64C66.5777 20.34 66.1097 19.89 65.7737 19.29C65.4497 18.69 65.2877 17.94 65.2877 17.04V11.55H66.5657V16.896C66.5657 17.904 66.8117 18.666 67.3037 19.182C67.8077 19.686 68.5097 19.938 69.4097 19.938C70.0697 19.938 70.6397 19.806 71.1197 19.542C71.6117 19.266 71.9837 18.87 72.2357 18.354C72.4997 17.838 72.6317 17.22 72.6317 16.5V11.55H73.9097V21H72.6857V18.408L72.8837 18.876C72.5837 19.572 72.1157 20.118 71.4797 20.514C70.8557 20.898 70.1237 21.09 69.2837 21.09ZM81.4855 21.09C80.5015 21.09 79.6375 20.886 78.8935 20.478C78.1495 20.058 77.5675 19.488 77.1475 18.768C76.7275 18.036 76.5175 17.202 76.5175 16.266C76.5175 15.33 76.7155 14.502 77.1115 13.782C77.5195 13.062 78.0715 12.498 78.7675 12.09C79.4755 11.67 80.2675 11.46 81.1435 11.46C82.0315 11.46 82.8175 11.664 83.5015 12.072C84.1975 12.468 84.7435 13.032 85.1395 13.764C85.5355 14.484 85.7335 15.318 85.7335 16.266C85.7335 16.326 85.7275 16.392 85.7155 16.464C85.7155 16.524 85.7155 16.59 85.7155 16.662H77.4895V15.708H85.0315L84.5275 16.086C84.5275 15.402 84.3775 14.796 84.0775 14.268C83.7895 13.728 83.3935 13.308 82.8895 13.008C82.3855 12.708 81.8035 12.558 81.1435 12.558C80.4955 12.558 79.9135 12.708 79.3975 13.008C78.8815 13.308 78.4795 13.728 78.1915 14.268C77.9035 14.808 77.7595 15.426 77.7595 16.122V16.32C77.7595 17.04 77.9155 17.676 78.2275 18.228C78.5515 18.768 78.9955 19.194 79.5595 19.506C80.1355 19.806 80.7895 19.956 81.5215 19.956C82.0975 19.956 82.6315 19.854 83.1235 19.65C83.6275 19.446 84.0595 19.134 84.4195 18.714L85.1395 19.542C84.7195 20.046 84.1915 20.43 83.5555 20.694C82.9315 20.958 82.2415 21.09 81.4855 21.09ZM97.8697 11.46C98.6377 11.46 99.3097 11.61 99.8857 11.91C100.474 12.198 100.93 12.642 101.254 13.242C101.59 13.842 101.758 14.598 101.758 15.51V21H100.48V15.636C100.48 14.64 100.228 13.89 99.7237 13.386C99.2317 12.87 98.5357 12.612 97.6357 12.612C96.9637 12.612 96.3757 12.75 95.8717 13.026C95.3797 13.29 94.9957 13.68 94.7197 14.196C94.4557 14.7 94.3237 15.312 94.3237 16.032V21H93.0457V11.55H94.2697V14.142L94.0717 13.656C94.3717 12.972 94.8517 12.438 95.5117 12.054C96.1717 11.658 96.9577 11.46 97.8697 11.46ZM109.062 21.09C108.15 21.09 107.328 20.886 106.596 20.478C105.876 20.058 105.306 19.488 104.886 18.768C104.466 18.036 104.256 17.202 104.256 16.266C104.256 15.318 104.466 14.484 104.886 13.764C105.306 13.044 105.876 12.48 106.596 12.072C107.316 11.664 108.138 11.46 109.062 11.46C109.998 11.46 110.826 11.664 111.546 12.072C112.278 12.48 112.848 13.044 113.256 13.764C113.676 14.484 113.886 15.318 113.886 16.266C113.886 17.202 113.676 18.036 113.256 18.768C112.848 19.488 112.278 20.058 111.546 20.478C110.814 20.886 109.986 21.09 109.062 21.09ZM109.062 19.956C109.746 19.956 110.352 19.806 110.88 19.506C111.408 19.194 111.822 18.762 112.122 18.21C112.434 17.646 112.59 16.998 112.59 16.266C112.59 15.522 112.434 14.874 112.122 14.322C111.822 13.77 111.408 13.344 110.88 13.044C110.352 12.732 109.752 12.576 109.08 12.576C108.408 12.576 107.808 12.732 107.28 13.044C106.752 13.344 106.332 13.77 106.02 14.322C105.708 14.874 105.552 15.522 105.552 16.266C105.552 16.998 105.708 17.646 106.02 18.21C106.332 18.762 106.752 19.194 107.28 19.506C107.808 19.806 108.402 19.956 109.062 19.956ZM158.316 21.09C157.404 21.09 156.582 20.886 155.85 20.478C155.13 20.058 154.56 19.488 154.14 18.768C153.72 18.036 153.51 17.202 153.51 16.266C153.51 15.318 153.72 14.484 154.14 13.764C154.56 13.044 155.13 12.48 155.85 12.072C156.57 11.664 157.392 11.46 158.316 11.46C159.252 11.46 160.08 11.664 160.8 12.072C161.532 12.48 162.102 13.044 162.51 13.764C162.93 14.484 163.14 15.318 163.14 16.266C163.14 17.202 162.93 18.036 162.51 18.768C162.102 19.488 161.532 20.058 160.8 20.478C160.068 20.886 159.24 21.09 158.316 21.09ZM158.316 19.956C159 19.956 159.606 19.806 160.134 19.506C160.662 19.194 161.076 18.762 161.376 18.21C161.688 17.646 161.844 16.998 161.844 16.266C161.844 15.522 161.688 14.874 161.376 14.322C161.076 13.77 160.662 13.344 160.134 13.044C159.606 12.732 159.006 12.576 158.334 12.576C157.662 12.576 157.062 12.732 156.534 13.044C156.006 13.344 155.586 13.77 155.274 14.322C154.962 14.874 154.806 15.522 154.806 16.266C154.806 16.998 154.962 17.646 155.274 18.21C155.586 18.762 156.006 19.194 156.534 19.506C157.062 19.806 157.656 19.956 158.316 19.956ZM169.655 21.09C168.851 21.09 168.149 20.94 167.549 20.64C166.949 20.34 166.481 19.89 166.145 19.29C165.821 18.69 165.659 17.94 165.659 17.04V11.55H166.937V16.896C166.937 17.904 167.183 18.666 167.675 19.182C168.179 19.686 168.881 19.938 169.781 19.938C170.441 19.938 171.011 19.806 171.491 19.542C171.983 19.266 172.355 18.87 172.607 18.354C172.871 17.838 173.003 17.22 173.003 16.5V11.55H174.281V21H173.057V18.408L173.255 18.876C172.955 19.572 172.487 20.118 171.851 20.514C171.227 20.898 170.495 21.09 169.655 21.09Z" fill="white"/>
<path d="M126.444 21.144C125.628 21.144 124.914 20.964 124.302 20.604C123.69 20.244 123.21 19.698 122.862 18.966C122.526 18.222 122.358 17.286 122.358 16.158C122.358 15.018 122.52 14.082 122.844 13.35C123.168 12.618 123.636 12.072 124.248 11.712C124.86 11.352 125.592 11.172 126.444 11.172C127.356 11.172 128.172 11.382 128.892 11.802C129.624 12.21 130.2 12.786 130.62 13.53C131.052 14.274 131.268 15.15 131.268 16.158C131.268 17.178 131.052 18.06 130.62 18.804C130.2 19.548 129.624 20.124 128.892 20.532C128.172 20.94 127.356 21.144 126.444 21.144ZM120.72 24.492V11.316H123.402V13.296L123.348 16.176L123.528 19.038V24.492H120.72ZM125.958 18.84C126.426 18.84 126.84 18.732 127.2 18.516C127.572 18.3 127.866 17.994 128.082 17.598C128.31 17.19 128.424 16.71 128.424 16.158C128.424 15.594 128.31 15.114 128.082 14.718C127.866 14.322 127.572 14.016 127.2 13.8C126.84 13.584 126.426 13.476 125.958 13.476C125.49 13.476 125.07 13.584 124.698 13.8C124.326 14.016 124.032 14.322 123.816 14.718C123.6 15.114 123.492 15.594 123.492 16.158C123.492 16.71 123.6 17.19 123.816 17.598C124.032 17.994 124.326 18.3 124.698 18.516C125.07 18.732 125.49 18.84 125.958 18.84ZM133.148 21V11.316H135.956V21H133.148ZM134.552 9.966C134.036 9.966 133.616 9.816 133.292 9.516C132.968 9.216 132.806 8.844 132.806 8.4C132.806 7.956 132.968 7.584 133.292 7.284C133.616 6.984 134.036 6.834 134.552 6.834C135.068 6.834 135.488 6.978 135.812 7.266C136.136 7.542 136.298 7.902 136.298 8.346C136.298 8.814 136.136 9.204 135.812 9.516C135.5 9.816 135.08 9.966 134.552 9.966ZM137.338 21L141.676 15.312L141.622 16.86L137.464 11.316H140.614L143.242 14.934L142.054 14.97L144.772 11.316H147.76L143.584 16.806V15.294L147.904 21H144.718L141.964 17.148L143.134 17.31L140.398 21H137.338ZM186.747 21.144C185.703 21.144 184.773 20.934 183.957 20.514C183.141 20.082 182.499 19.488 182.031 18.732C181.575 17.976 181.347 17.118 181.347 16.158C181.347 15.186 181.575 14.328 182.031 13.584C182.499 12.828 183.141 12.24 183.957 11.82C184.773 11.388 185.703 11.172 186.747 11.172C187.767 11.172 188.655 11.388 189.411 11.82C190.167 12.24 190.725 12.846 191.085 13.638L188.907 14.808C188.655 14.352 188.337 14.016 187.953 13.8C187.581 13.584 187.173 13.476 186.729 13.476C186.249 13.476 185.817 13.584 185.433 13.8C185.049 14.016 184.743 14.322 184.515 14.718C184.299 15.114 184.191 15.594 184.191 16.158C184.191 16.722 184.299 17.202 184.515 17.598C184.743 17.994 185.049 18.3 185.433 18.516C185.817 18.732 186.249 18.84 186.729 18.84C187.173 18.84 187.581 18.738 187.953 18.534C188.337 18.318 188.655 17.976 188.907 17.508L191.085 18.696C190.725 19.476 190.167 20.082 189.411 20.514C188.655 20.934 187.767 21.144 186.747 21.144ZM198.642 21V19.11L198.462 18.696V15.312C198.462 14.712 198.276 14.244 197.904 13.908C197.544 13.572 196.986 13.404 196.23 13.404C195.714 13.404 195.204 13.488 194.7 13.656C194.208 13.812 193.788 14.028 193.44 14.304L192.432 12.342C192.96 11.97 193.596 11.682 194.34 11.478C195.084 11.274 195.84 11.172 196.608 11.172C198.084 11.172 199.23 11.52 200.046 12.216C200.862 12.912 201.27 13.998 201.27 15.474V21H198.642ZM195.69 21.144C194.934 21.144 194.286 21.018 193.746 20.766C193.206 20.502 192.792 20.148 192.504 19.704C192.216 19.26 192.072 18.762 192.072 18.21C192.072 17.634 192.21 17.13 192.486 16.698C192.774 16.266 193.224 15.93 193.836 15.69C194.448 15.438 195.246 15.312 196.23 15.312H198.804V16.95H196.536C195.876 16.95 195.42 17.058 195.168 17.274C194.928 17.49 194.808 17.76 194.808 18.084C194.808 18.444 194.946 18.732 195.222 18.948C195.51 19.152 195.9 19.254 196.392 19.254C196.86 19.254 197.28 19.146 197.652 18.93C198.024 18.702 198.294 18.372 198.462 17.94L198.894 19.236C198.69 19.86 198.318 20.334 197.778 20.658C197.238 20.982 196.542 21.144 195.69 21.144ZM203.812 21V11.316H206.494V14.052L206.116 13.26C206.404 12.576 206.866 12.06 207.502 11.712C208.138 11.352 208.912 11.172 209.824 11.172V13.764C209.704 13.752 209.596 13.746 209.5 13.746C209.404 13.734 209.302 13.728 209.194 13.728C208.426 13.728 207.802 13.95 207.322 14.394C206.854 14.826 206.62 15.504 206.62 16.428V21H203.812ZM215.787 21.144C214.647 21.144 213.759 20.856 213.123 20.28C212.487 19.692 212.169 18.822 212.169 17.67V9.174H214.977V17.634C214.977 18.042 215.085 18.36 215.301 18.588C215.517 18.804 215.811 18.912 216.183 18.912C216.627 18.912 217.005 18.792 217.317 18.552L218.073 20.532C217.785 20.736 217.437 20.892 217.029 21C216.633 21.096 216.219 21.144 215.787 21.144ZM210.675 13.692V11.532H217.389V13.692H210.675ZM225.59 21V19.11L225.41 18.696V15.312C225.41 14.712 225.224 14.244 224.852 13.908C224.492 13.572 223.934 13.404 223.178 13.404C222.662 13.404 222.152 13.488 221.648 13.656C221.156 13.812 220.736 14.028 220.388 14.304L219.38 12.342C219.908 11.97 220.544 11.682 221.288 11.478C222.032 11.274 222.788 11.172 223.556 11.172C225.032 11.172 226.178 11.52 226.994 12.216C227.81 12.912 228.218 13.998 228.218 15.474V21H225.59ZM222.638 21.144C221.882 21.144 221.234 21.018 220.694 20.766C220.154 20.502 219.74 20.148 219.452 19.704C219.164 19.26 219.02 18.762 219.02 18.21C219.02 17.634 219.158 17.13 219.434 16.698C219.722 16.266 220.172 15.93 220.784 15.69C221.396 15.438 222.194 15.312 223.178 15.312H225.752V16.95H223.484C222.824 16.95 222.368 17.058 222.116 17.274C221.876 17.49 221.756 17.76 221.756 18.084C221.756 18.444 221.894 18.732 222.17 18.948C222.458 19.152 222.848 19.254 223.34 19.254C223.808 19.254 224.228 19.146 224.6 18.93C224.972 18.702 225.242 18.372 225.41 17.94L225.842 19.236C225.638 19.86 225.266 20.334 224.726 20.658C224.186 20.982 223.49 21.144 222.638 21.144ZM225.194 10.128C224.882 10.128 224.606 10.074 224.366 9.966C224.126 9.846 223.91 9.714 223.718 9.57C223.526 9.414 223.346 9.282 223.178 9.174C223.01 9.054 222.842 8.994 222.674 8.994C222.434 8.994 222.236 9.084 222.08 9.264C221.924 9.432 221.834 9.678 221.81 10.002H220.388C220.412 9.198 220.61 8.562 220.982 8.094C221.354 7.614 221.858 7.374 222.494 7.374C222.806 7.374 223.082 7.434 223.322 7.554C223.562 7.662 223.778 7.794 223.97 7.95C224.174 8.106 224.36 8.244 224.528 8.364C224.696 8.472 224.858 8.526 225.014 8.526C225.266 8.526 225.47 8.442 225.626 8.274C225.782 8.094 225.866 7.854 225.878 7.554H227.3C227.288 8.322 227.09 8.946 226.706 9.426C226.334 9.894 225.83 10.128 225.194 10.128ZM235.437 21.144C234.405 21.144 233.487 20.928 232.683 20.496C231.891 20.064 231.261 19.476 230.793 18.732C230.337 17.976 230.109 17.118 230.109 16.158C230.109 15.186 230.337 14.328 230.793 13.584C231.261 12.828 231.891 12.24 232.683 11.82C233.487 11.388 234.405 11.172 235.437 11.172C236.457 11.172 237.369 11.388 238.173 11.82C238.977 12.24 239.607 12.822 240.063 13.566C240.519 14.31 240.747 15.174 240.747 16.158C240.747 17.118 240.519 17.976 240.063 18.732C239.607 19.476 238.977 20.064 238.173 20.496C237.369 20.928 236.457 21.144 235.437 21.144ZM235.437 18.84C235.905 18.84 236.325 18.732 236.697 18.516C237.069 18.3 237.363 17.994 237.579 17.598C237.795 17.19 237.903 16.71 237.903 16.158C237.903 15.594 237.795 15.114 237.579 14.718C237.363 14.322 237.069 14.016 236.697 13.8C236.325 13.584 235.905 13.476 235.437 13.476C234.969 13.476 234.549 13.584 234.177 13.8C233.805 14.016 233.505 14.322 233.277 14.718C233.061 15.114 232.953 15.594 232.953 16.158C232.953 16.71 233.061 17.19 233.277 17.598C233.505 17.994 233.805 18.3 234.177 18.516C234.549 18.732 234.969 18.84 235.437 18.84Z" fill="#F70000"/>
<path d="M35.1407 42.1828H28.1012L28 42.6437C29.4455 42.9605 31.0933 43.4646 32.0763 43.9974C32.6834 44.3287 32.8568 44.6167 33.0592 45.3944L36.3549 58.1112H40.7348L47.4418 42.1828H43.0909L38.7978 53.0274L37.0488 43.8102C36.8464 42.7877 36.0369 42.1828 35.1407 42.1828Z" fill="url(#paint0_linear_118_125)"/>
<path d="M53.3539 42.1828H49.2198L45.794 58.1256H49.9425L53.3539 42.1828Z" fill="url(#paint1_linear_118_125)"/>
<path d="M72.3331 42.1828C71.5381 42.1828 70.8732 42.6437 70.5696 43.3494L64.3685 58.1112H68.705L69.5723 55.7349H74.8772L75.3831 58.1112H79.2137L75.8601 42.1828H72.3331ZM70.7576 52.4801L72.9403 46.5033L74.1978 52.4801H70.7576Z" fill="url(#paint2_linear_118_125)"/>
<path d="M64.5853 52.9265C64.5998 48.7212 58.7455 48.4908 58.7889 46.6042C58.8034 46.0281 59.3527 45.4232 60.538 45.2648C61.1306 45.1928 62.764 45.1352 64.6142 45.9705L65.337 42.5861C64.3396 42.226 63.0531 41.8804 61.4631 41.8804C57.3723 41.8804 54.4958 44.0406 54.4669 47.1514C54.438 49.4413 56.5195 50.7231 58.0951 51.4864C59.6996 52.2641 60.2489 52.7681 60.2344 53.4594C60.2199 54.5251 58.9479 55.0004 57.7626 55.0148C55.6811 55.0436 54.4814 54.4531 53.5129 54.0067L52.7612 57.4919C53.7297 57.9384 55.5077 58.3128 57.3579 58.3416C61.7233 58.3704 64.5709 56.239 64.5853 52.9265Z" fill="url(#paint3_linear_118_125)"/>
<path d="M122.687 41.5789H112.695V59.5358H122.687V41.5789Z" fill="#FF5F00"/>
<path d="M113.328 50.5598C113.326 48.8302 113.717 47.1228 114.473 45.567C115.229 44.0112 116.328 42.6477 117.689 41.5798C116.004 40.2559 113.981 39.4326 111.851 39.2041C109.721 38.9755 107.569 39.351 105.642 40.2875C103.715 41.224 102.09 42.6838 100.953 44.5C99.8164 46.3162 99.2136 48.4156 99.2136 50.5583C99.2136 52.7009 99.8164 54.8003 100.953 56.6165C102.09 58.4327 103.715 59.8925 105.642 60.829C107.569 61.7655 109.721 62.141 111.851 61.9124C113.981 61.6839 116.004 60.8606 117.689 59.5367C116.329 58.4691 115.229 57.1061 114.474 55.5509C113.718 53.9957 113.326 52.2889 113.328 50.5598V50.5598Z" fill="#EB001B"/>
<path d="M136.167 50.5587C136.167 52.7015 135.564 54.801 134.427 56.6173C133.29 58.4336 131.665 59.8934 129.738 60.8297C127.811 61.7661 125.659 62.1413 123.528 61.9125C121.398 61.6836 119.374 60.8599 117.69 59.5356C119.05 58.4671 120.149 57.1037 120.905 55.5484C121.66 53.9931 122.053 52.2864 122.053 50.5571C122.053 48.8279 121.66 47.1212 120.905 45.5659C120.149 44.0106 119.05 42.6472 117.69 41.5787C119.374 40.2543 121.398 39.4307 123.528 39.2018C125.659 38.9729 127.811 39.3481 129.738 40.2845C131.665 41.2209 133.29 42.6807 134.427 44.497C135.564 46.3132 136.167 48.4128 136.167 50.5555V50.5587Z" fill="#F79E1B"/>
<path fill-rule="evenodd" clip-rule="evenodd" d="M167.34 40.9658C165.895 40.9658 162.98 40.9658 162.98 40.9658C161.056 41.0566 159.486 41.8321 159.024 43.4326C158.784 44.2659 158.652 45.1817 158.471 46.0479C157.529 50.437 156.695 54.9498 155.795 59.2564H189.737C192.363 59.2564 194.164 58.7037 194.651 56.6246C194.874 55.6594 195.097 54.5621 195.311 53.4978C196.154 49.3645 197.004 45.2229 197.863 40.9658H167.34Z" fill="#C61218"/>
<path fill-rule="evenodd" clip-rule="evenodd" d="M167.001 47.4671C167.183 47.3434 167.422 46.7741 167.15 46.5348C167.067 46.4606 166.919 46.4358 166.72 46.4688C166.539 46.5018 166.431 46.5596 166.357 46.6586C166.242 46.8153 166.134 47.2938 166.316 47.4671C166.498 47.6404 166.886 47.5496 167.001 47.4671ZM164.408 46.5348C164.276 47.3846 164.127 48.2096 163.979 49.0429C163.037 49.0511 162.071 49.0841 161.154 49.0181C161.328 48.2096 161.452 47.3433 161.625 46.5348H160.601C160.238 48.6056 159.899 50.7094 159.494 52.739H160.535C160.7 51.6994 160.849 50.6434 161.063 49.6616C161.955 49.6369 163.021 49.6039 163.871 49.6864C163.698 50.7177 163.483 51.7077 163.318 52.7472H164.359C164.697 50.6434 165.044 48.5644 165.465 46.5431H164.408V46.5348ZM179.149 48.3169C178.34 47.9869 177.704 48.5396 177.407 49.0594C177.473 48.8284 177.498 48.5561 177.556 48.3169H176.746C176.548 49.8514 176.259 51.2869 175.978 52.739H176.895C177.027 51.8809 177.077 50.7177 177.366 49.8926C177.597 49.2326 178.191 48.6716 179.042 48.9769C179.05 48.7294 179.125 48.5479 179.149 48.3169ZM179.661 51.6994C179.579 51.4849 179.554 51.1219 179.579 50.8497C179.628 50.2392 179.851 49.4884 180.198 49.1501C180.677 48.6799 181.619 48.7624 182.37 49.0264C182.395 48.7706 182.445 48.5479 182.478 48.3004C181.247 48.1024 180.074 48.2261 179.455 48.8779C178.852 49.5131 178.447 50.9734 178.728 51.8974C179.059 52.97 180.529 53.036 181.726 52.6235C181.776 52.4089 181.809 52.1697 181.85 51.9469C181.198 52.2687 179.95 52.4419 179.661 51.6994ZM189.935 48.3416C189.126 47.9374 188.457 48.6139 188.192 49.0181C188.267 48.8119 188.275 48.5314 188.341 48.3169H187.532C187.317 49.8349 187.053 51.3034 186.747 52.739H187.68C187.689 52.1532 187.804 51.7159 187.895 51.1467C188.093 49.9174 188.374 48.5726 189.811 48.9769C189.852 48.7706 189.869 48.5314 189.935 48.3416ZM166.068 48.3169C166.043 48.3169 166.043 48.3499 166.043 48.3829C165.845 49.8844 165.573 51.3199 165.275 52.739H166.192C166.415 51.2209 166.663 49.7359 166.977 48.3169H166.068ZM174.104 48.2344C173.443 48.2839 172.881 48.4736 172.485 48.8944C171.998 49.4059 171.601 50.5362 171.717 51.5757C171.882 53.0442 173.715 52.9947 175.185 52.64C175.21 52.3842 175.276 52.1614 175.309 51.9139C174.706 52.1367 173.658 52.4584 173.03 52.0624C172.559 51.7654 172.559 51.0147 172.708 50.3629C173.691 50.3299 174.723 50.3382 175.706 50.3629C175.772 49.9009 175.945 49.3976 175.788 48.9356C175.598 48.3334 174.863 48.1766 174.104 48.2344ZM174.979 49.8514H172.832C172.898 49.3564 173.344 48.8119 174.046 48.7871C174.698 48.7624 175.177 49.0264 174.979 49.8514ZM170.643 48.3169C169.867 48.0281 168.925 48.3746 168.521 48.7046C168.521 48.7211 168.513 48.7211 168.496 48.7211C168.504 48.7129 168.513 48.7129 168.521 48.7046C168.529 48.5644 168.579 48.4654 168.587 48.3251H167.802C167.472 50.5032 167.084 52.6235 166.679 54.719H167.596C167.728 53.9022 167.819 53.0442 168.001 52.2769C168.207 53.0855 169.57 52.9287 170.148 52.6152C171.32 51.9717 172.237 48.9191 170.643 48.3169ZM169.917 51.9057C169.429 52.4254 168.224 52.4172 168.133 51.5427C168.091 51.1632 168.232 50.7672 168.306 50.3712C168.38 49.9752 168.43 49.5956 168.496 49.2409C168.975 48.6551 170.395 48.5809 170.536 49.5626C170.66 50.4207 170.321 51.4767 169.917 51.9057ZM193.337 46.4028C193.263 47.0876 193.156 47.7476 193.015 48.3829C190.769 47.6734 189.398 49.3234 189.423 51.3612C189.431 51.7572 189.497 52.1449 189.745 52.4254C190.166 52.904 191.388 53.0195 192 52.6152C192.115 52.5409 192.239 52.3924 192.322 52.2934C192.379 52.2192 192.479 52.0212 192.495 52.0789C192.462 52.2934 192.412 52.4914 192.412 52.739H193.238C193.395 50.4454 193.891 48.4901 194.262 46.4111H193.337V46.4028ZM191.289 52.2522C190.67 52.2687 190.364 51.8809 190.356 51.2539C190.331 50.1484 190.819 48.9191 191.801 48.8119C192.264 48.7624 192.594 48.8696 192.933 48.9851C192.619 50.2144 192.735 52.2192 191.289 52.2522ZM183.403 48.3169C183.361 48.5726 183.287 48.7954 183.229 49.0429C183.766 48.9109 185.451 48.4901 185.608 49.2161C185.665 49.4554 185.566 49.7111 185.5 49.8926C183.981 49.7524 182.742 49.9999 182.42 51.0807C182.205 51.8067 182.445 52.5162 182.907 52.7142C183.799 53.0937 184.889 52.6565 185.269 52.0542C185.228 52.2604 185.195 52.4749 185.203 52.7307H185.987C185.996 51.9799 186.103 51.3694 186.219 50.6929C186.318 50.1154 186.499 49.5461 186.475 49.0346C186.417 47.8714 184.484 48.2839 183.403 48.3169ZM184.889 51.8892C184.418 52.3512 183.097 52.4832 183.229 51.3777C183.345 50.4619 184.336 50.2722 185.418 50.4042C185.343 50.8992 185.252 51.5344 184.889 51.8892Z" fill="white"/>
<path fill-rule="evenodd" clip-rule="evenodd" d="M230.121 39.8074C236.017 39.8074 240.799 44.5832 240.799 50.4795C240.799 56.3758 236.017 61.1577 230.121 61.1577C224.224 61.1577 219.448 56.3758 219.448 50.4795C219.448 44.5832 224.224 39.8074 230.121 39.8074Z" fill="black" stroke="black" stroke-width="0.5669" stroke-miterlimit="22.9256"/>
<path fill-rule="evenodd" clip-rule="evenodd" d="M225.535 47.6201C227.084 47.6201 228.376 48.6916 228.725 50.1305L227.402 50.706L226.049 51.2999L222.804 52.7204C222.455 52.2 222.253 51.5755 222.253 50.902C222.253 49.0896 223.722 47.6201 225.535 47.6201ZM226.943 49.659L223.667 51.0734C223.661 51.0183 223.661 50.9571 223.661 50.902C223.661 49.8672 224.5 49.0222 225.541 49.0222C226.098 49.0222 226.6 49.2733 226.943 49.659Z" fill="white"/>
<path fill-rule="evenodd" clip-rule="evenodd" d="M227.831 53.2471C226.655 54.3614 225.1 54.4716 223.735 53.6451L224.506 52.4695C225.284 52.9348 226.062 52.8613 226.845 52.2429L227.831 53.2471Z" fill="white"/>
<path fill-rule="evenodd" clip-rule="evenodd" d="M229.165 52.4388L229.159 46.2363H230.329V52.2734C230.329 52.3286 230.335 52.3837 230.414 52.4143L231.437 52.8123L230.978 54.0123L229.778 53.5041C229.325 53.3021 229.165 53.0266 229.165 52.4388Z" fill="white"/>
<path fill-rule="evenodd" clip-rule="evenodd" d="M233.592 52.3349C233.152 51.992 232.87 51.4593 232.87 50.8593C232.87 50.3266 233.096 49.8429 233.452 49.5L232.692 48.2693C231.927 48.8754 231.437 49.8061 231.437 50.8593C231.437 51.992 232.007 52.99 232.876 53.5839L233.592 52.3349Z" fill="#009DD7"/>
<path fill-rule="evenodd" clip-rule="evenodd" d="M234.107 49.0896C234.303 49.0161 234.517 48.9794 234.737 48.9794C235.539 48.9794 236.225 49.4814 236.488 50.1917L237.946 50.0692C237.597 48.6242 236.293 47.5527 234.737 47.5527C234.296 47.5527 233.88 47.6385 233.494 47.7976L234.107 49.0896Z" fill="#FFF200"/>
<path fill-rule="evenodd" clip-rule="evenodd" d="M236.611 50.9448C236.562 51.9367 235.742 52.7266 234.744 52.7266C234.584 52.7266 234.431 52.7082 234.29 52.6715L233.721 53.994C234.046 54.0981 234.388 54.1593 234.75 54.1593C236.525 54.1593 237.976 52.7511 238.05 50.9938L236.611 50.9448Z" fill="#E33206"/>
<defs>
<linearGradient id="paint0_linear_118_125" x1="79.1703" y1="58.2984" x2="28" y2="58.2984" gradientUnits="userSpaceOnUse">
<stop stop-color="#0076FF"/>
<stop offset="1" stop-color="#0011AD"/>
</linearGradient>
<linearGradient id="paint1_linear_118_125" x1="79.1703" y1="58.2984" x2="28" y2="58.2984" gradientUnits="userSpaceOnUse">
<stop stop-color="#0076FF"/>
<stop offset="1" stop-color="#0011AD"/>
</linearGradient>
<linearGradient id="paint2_linear_118_125" x1="79.1703" y1="58.2984" x2="28" y2="58.2984" gradientUnits="userSpaceOnUse">
<stop stop-color="#0076FF"/>
<stop offset="1" stop-color="#0011AD"/>
</linearGradient>
<linearGradient id="paint3_linear_118_125" x1="79.1703" y1="58.2984" x2="28" y2="58.2984" gradientUnits="userSpaceOnUse">
<stop stop-color="#0076FF"/>
<stop offset="1" stop-color="#0011AD"/>
</linearGradient>
</defs>
</svg>
