<svg width="235" height="90" viewBox="0 0 235 90" fill="none" xmlns="http://www.w3.org/2000/svg">
<path d="M14 26.5264C14 30.1889 10.866 33.1579 7 33.1579C3.13401 33.1579 0 30.1889 0 26.5264C0 22.8638 3.13401 19.8948 7 19.8948C10.866 19.8948 14 22.8638 14 26.5264ZM2.29203 26.5264C2.29203 28.9896 4.39986 30.9865 7 30.9865C9.60014 30.9865 11.708 28.9896 11.708 26.5264C11.708 24.0631 9.60014 22.0662 7 22.0662C4.39986 22.0662 2.29203 24.0631 2.29203 26.5264Z" fill="#F70000"/>
<path d="M30.052 21V8.4H34.768C35.836 8.4 36.754 8.574 37.522 8.922C38.29 9.258 38.878 9.75 39.286 10.398C39.706 11.034 39.916 11.808 39.916 12.72C39.916 13.608 39.706 14.376 39.286 15.024C38.878 15.66 38.29 16.152 37.522 16.5C36.754 16.848 35.836 17.022 34.768 17.022H30.79L31.384 16.392V21H30.052ZM31.384 16.5L30.79 15.852H34.732C35.992 15.852 36.946 15.582 37.594 15.042C38.254 14.49 38.584 13.716 38.584 12.72C38.584 11.712 38.254 10.932 37.594 10.38C36.946 9.828 35.992 9.552 34.732 9.552H30.79L31.384 8.922V16.5ZM48.3603 21V18.912L48.3063 18.57V15.078C48.3063 14.274 48.0783 13.656 47.6223 13.224C47.1783 12.792 46.5123 12.576 45.6243 12.576C45.0123 12.576 44.4303 12.678 43.8783 12.882C43.3263 13.086 42.8583 13.356 42.4743 13.692L41.8983 12.738C42.3783 12.33 42.9543 12.018 43.6263 11.802C44.2983 11.574 45.0063 11.46 45.7503 11.46C46.9743 11.46 47.9163 11.766 48.5763 12.378C49.2483 12.978 49.5843 13.896 49.5843 15.132V21H48.3603ZM45.1023 21.09C44.3943 21.09 43.7763 20.976 43.2483 20.748C42.7323 20.508 42.3363 20.184 42.0603 19.776C41.7843 19.356 41.6463 18.876 41.6463 18.336C41.6463 17.844 41.7603 17.4 41.9883 17.004C42.2283 16.596 42.6123 16.272 43.1403 16.032C43.6803 15.78 44.4003 15.654 45.3003 15.654H48.5583V16.608H45.3363C44.4243 16.608 43.7883 16.77 43.4283 17.094C43.0803 17.418 42.9062 17.82 42.9062 18.3C42.9062 18.84 43.1163 19.272 43.5363 19.596C43.9563 19.92 44.5443 20.082 45.3003 20.082C46.0203 20.082 46.6383 19.92 47.1543 19.596C47.6823 19.26 48.0663 18.78 48.3063 18.156L48.5943 19.038C48.3543 19.662 47.9343 20.16 47.3343 20.532C46.7463 20.904 46.0023 21.09 45.1023 21.09ZM57.0874 24.582C56.2234 24.582 55.3954 24.456 54.6034 24.204C53.8114 23.952 53.1694 23.592 52.6774 23.124L53.3254 22.152C53.7694 22.548 54.3154 22.86 54.9634 23.088C55.6234 23.328 56.3194 23.448 57.0514 23.448C58.2514 23.448 59.1334 23.166 59.6974 22.602C60.2614 22.05 60.5434 21.186 60.5434 20.01V17.652L60.7234 16.032L60.5974 14.412V11.55H61.8214V19.848C61.8214 21.48 61.4194 22.674 60.6154 23.43C59.8234 24.198 58.6474 24.582 57.0874 24.582ZM56.8534 20.64C55.9534 20.64 55.1434 20.448 54.4234 20.064C53.7034 19.668 53.1334 19.122 52.7134 18.426C52.3054 17.73 52.1014 16.932 52.1014 16.032C52.1014 15.132 52.3054 14.34 52.7134 13.656C53.1334 12.96 53.7034 12.42 54.4234 12.036C55.1434 11.652 55.9534 11.46 56.8534 11.46C57.6934 11.46 58.4494 11.634 59.1214 11.982C59.7934 12.33 60.3274 12.846 60.7234 13.53C61.1194 14.214 61.3174 15.048 61.3174 16.032C61.3174 17.016 61.1194 17.85 60.7234 18.534C60.3274 19.218 59.7934 19.74 59.1214 20.1C58.4494 20.46 57.6934 20.64 56.8534 20.64ZM56.9794 19.506C57.6754 19.506 58.2934 19.362 58.8334 19.074C59.3734 18.774 59.7994 18.366 60.1114 17.85C60.4234 17.322 60.5794 16.716 60.5794 16.032C60.5794 15.348 60.4234 14.748 60.1114 14.232C59.7994 13.716 59.3734 13.314 58.8334 13.026C58.2934 12.726 57.6754 12.576 56.9794 12.576C56.2954 12.576 55.6774 12.726 55.1254 13.026C54.5854 13.314 54.1594 13.716 53.8474 14.232C53.5474 14.748 53.3974 15.348 53.3974 16.032C53.3974 16.716 53.5474 17.322 53.8474 17.85C54.1594 18.366 54.5854 18.774 55.1254 19.074C55.6774 19.362 56.2954 19.506 56.9794 19.506ZM69.2837 21.09C68.4797 21.09 67.7777 20.94 67.1777 20.64C66.5777 20.34 66.1097 19.89 65.7737 19.29C65.4497 18.69 65.2877 17.94 65.2877 17.04V11.55H66.5657V16.896C66.5657 17.904 66.8117 18.666 67.3037 19.182C67.8077 19.686 68.5097 19.938 69.4097 19.938C70.0697 19.938 70.6397 19.806 71.1197 19.542C71.6117 19.266 71.9837 18.87 72.2357 18.354C72.4997 17.838 72.6317 17.22 72.6317 16.5V11.55H73.9097V21H72.6857V18.408L72.8837 18.876C72.5837 19.572 72.1157 20.118 71.4797 20.514C70.8557 20.898 70.1237 21.09 69.2837 21.09ZM81.4855 21.09C80.5015 21.09 79.6375 20.886 78.8935 20.478C78.1495 20.058 77.5675 19.488 77.1475 18.768C76.7275 18.036 76.5175 17.202 76.5175 16.266C76.5175 15.33 76.7155 14.502 77.1115 13.782C77.5195 13.062 78.0715 12.498 78.7675 12.09C79.4755 11.67 80.2675 11.46 81.1435 11.46C82.0315 11.46 82.8175 11.664 83.5015 12.072C84.1975 12.468 84.7435 13.032 85.1395 13.764C85.5355 14.484 85.7335 15.318 85.7335 16.266C85.7335 16.326 85.7275 16.392 85.7155 16.464C85.7155 16.524 85.7155 16.59 85.7155 16.662H77.4895V15.708H85.0315L84.5275 16.086C84.5275 15.402 84.3775 14.796 84.0775 14.268C83.7895 13.728 83.3935 13.308 82.8895 13.008C82.3855 12.708 81.8035 12.558 81.1435 12.558C80.4955 12.558 79.9135 12.708 79.3975 13.008C78.8815 13.308 78.4795 13.728 78.1915 14.268C77.9035 14.808 77.7595 15.426 77.7595 16.122V16.32C77.7595 17.04 77.9155 17.676 78.2275 18.228C78.5515 18.768 78.9955 19.194 79.5595 19.506C80.1355 19.806 80.7895 19.956 81.5215 19.956C82.0975 19.956 82.6315 19.854 83.1235 19.65C83.6275 19.446 84.0595 19.134 84.4195 18.714L85.1395 19.542C84.7195 20.046 84.1915 20.43 83.5555 20.694C82.9315 20.958 82.2415 21.09 81.4855 21.09ZM96.9697 21.09C96.0337 21.09 95.1937 20.886 94.4497 20.478C93.7177 20.058 93.1417 19.488 92.7217 18.768C92.3017 18.036 92.0917 17.202 92.0917 16.266C92.0917 15.318 92.3017 14.484 92.7217 13.764C93.1417 13.044 93.7177 12.48 94.4497 12.072C95.1937 11.664 96.0337 11.46 96.9697 11.46C97.7737 11.46 98.4997 11.616 99.1477 11.928C99.7957 12.24 100.306 12.708 100.678 13.332L99.7237 13.98C99.3997 13.5 98.9977 13.146 98.5177 12.918C98.0377 12.69 97.5157 12.576 96.9517 12.576C96.2797 12.576 95.6737 12.732 95.1337 13.044C94.5937 13.344 94.1677 13.77 93.8557 14.322C93.5437 14.874 93.3877 15.522 93.3877 16.266C93.3877 17.01 93.5437 17.658 93.8557 18.21C94.1677 18.762 94.5937 19.194 95.1337 19.506C95.6737 19.806 96.2797 19.956 96.9517 19.956C97.5157 19.956 98.0377 19.842 98.5177 19.614C98.9977 19.386 99.3997 19.038 99.7237 18.57L100.678 19.218C100.306 19.83 99.7957 20.298 99.1477 20.622C98.4997 20.934 97.7737 21.09 96.9697 21.09ZM106.882 21.09C105.97 21.09 105.148 20.886 104.416 20.478C103.696 20.058 103.126 19.488 102.706 18.768C102.286 18.036 102.076 17.202 102.076 16.266C102.076 15.318 102.286 14.484 102.706 13.764C103.126 13.044 103.696 12.48 104.416 12.072C105.136 11.664 105.958 11.46 106.882 11.46C107.818 11.46 108.646 11.664 109.366 12.072C110.098 12.48 110.668 13.044 111.076 13.764C111.496 14.484 111.706 15.318 111.706 16.266C111.706 17.202 111.496 18.036 111.076 18.768C110.668 19.488 110.098 20.058 109.366 20.478C108.634 20.886 107.806 21.09 106.882 21.09ZM106.882 19.956C107.566 19.956 108.172 19.806 108.7 19.506C109.228 19.194 109.642 18.762 109.942 18.21C110.254 17.646 110.41 16.998 110.41 16.266C110.41 15.522 110.254 14.874 109.942 14.322C109.642 13.77 109.228 13.344 108.7 13.044C108.172 12.732 107.572 12.576 106.9 12.576C106.228 12.576 105.628 12.732 105.1 13.044C104.572 13.344 104.152 13.77 103.84 14.322C103.528 14.874 103.372 15.522 103.372 16.266C103.372 16.998 103.528 17.646 103.84 18.21C104.152 18.762 104.572 19.194 105.1 19.506C105.628 19.806 106.222 19.956 106.882 19.956ZM126.123 11.46C126.891 11.46 127.557 11.61 128.121 11.91C128.697 12.198 129.141 12.642 129.453 13.242C129.777 13.842 129.939 14.598 129.939 15.51V21H128.661V15.636C128.661 14.64 128.421 13.89 127.941 13.386C127.473 12.87 126.807 12.612 125.943 12.612C125.295 12.612 124.731 12.75 124.251 13.026C123.783 13.29 123.417 13.68 123.153 14.196C122.901 14.7 122.775 15.312 122.775 16.032V21H121.497V15.636C121.497 14.64 121.257 13.89 120.777 13.386C120.297 12.87 119.625 12.612 118.761 12.612C118.125 12.612 117.567 12.75 117.087 13.026C116.607 13.29 116.235 13.68 115.971 14.196C115.719 14.7 115.593 15.312 115.593 16.032V21H114.315V11.55H115.539V14.106L115.341 13.656C115.629 12.972 116.091 12.438 116.727 12.054C117.375 11.658 118.137 11.46 119.013 11.46C119.937 11.46 120.723 11.694 121.371 12.162C122.019 12.618 122.439 13.308 122.631 14.232L122.127 14.034C122.403 13.266 122.889 12.648 123.585 12.18C124.293 11.7 125.139 11.46 126.123 11.46ZM165.889 23.628L166.681 20.298L166.825 21.072C166.549 21.072 166.315 20.982 166.123 20.802C165.943 20.622 165.853 20.388 165.853 20.1C165.853 19.812 165.943 19.578 166.123 19.398C166.315 19.218 166.543 19.128 166.807 19.128C167.083 19.128 167.305 19.224 167.473 19.416C167.653 19.608 167.743 19.836 167.743 20.1C167.743 20.196 167.737 20.292 167.725 20.388C167.713 20.484 167.689 20.592 167.653 20.712C167.617 20.832 167.569 20.976 167.509 21.144L166.753 23.628H165.889ZM99.2883 51.09C98.3763 51.09 97.5543 50.886 96.8223 50.478C96.1023 50.058 95.5323 49.488 95.1123 48.768C94.6923 48.036 94.4823 47.202 94.4823 46.266C94.4823 45.318 94.6923 44.484 95.1123 43.764C95.5323 43.044 96.1023 42.48 96.8223 42.072C97.5423 41.664 98.3643 41.46 99.2883 41.46C100.224 41.46 101.052 41.664 101.772 42.072C102.504 42.48 103.074 43.044 103.482 43.764C103.902 44.484 104.112 45.318 104.112 46.266C104.112 47.202 103.902 48.036 103.482 48.768C103.074 49.488 102.504 50.058 101.772 50.478C101.04 50.886 100.212 51.09 99.2883 51.09ZM99.2883 49.956C99.9723 49.956 100.578 49.806 101.106 49.506C101.634 49.194 102.048 48.762 102.348 48.21C102.66 47.646 102.816 46.998 102.816 46.266C102.816 45.522 102.66 44.874 102.348 44.322C102.048 43.77 101.634 43.344 101.106 43.044C100.578 42.732 99.9783 42.576 99.3063 42.576C98.6343 42.576 98.0343 42.732 97.5063 43.044C96.9783 43.344 96.5583 43.77 96.2463 44.322C95.9343 44.874 95.7783 45.522 95.7783 46.266C95.7783 46.998 95.9343 47.646 96.2463 48.21C96.5583 48.762 96.9783 49.194 97.5063 49.506C98.0343 49.806 98.6283 49.956 99.2883 49.956ZM110.627 51.09C109.823 51.09 109.121 50.94 108.521 50.64C107.921 50.34 107.453 49.89 107.117 49.29C106.793 48.69 106.631 47.94 106.631 47.04V41.55H107.909V46.896C107.909 47.904 108.155 48.666 108.647 49.182C109.151 49.686 109.853 49.938 110.753 49.938C111.413 49.938 111.983 49.806 112.463 49.542C112.955 49.266 113.327 48.87 113.579 48.354C113.843 47.838 113.975 47.22 113.975 46.5V41.55H115.253V51H114.029V48.408L114.227 48.876C113.927 49.572 113.459 50.118 112.823 50.514C112.199 50.898 111.467 51.09 110.627 51.09Z" fill="white"/>
<path d="M143.354 21.144C142.538 21.144 141.824 20.964 141.212 20.604C140.6 20.244 140.12 19.698 139.772 18.966C139.436 18.222 139.268 17.286 139.268 16.158C139.268 15.018 139.43 14.082 139.754 13.35C140.078 12.618 140.546 12.072 141.158 11.712C141.77 11.352 142.502 11.172 143.354 11.172C144.266 11.172 145.082 11.382 145.802 11.802C146.534 12.21 147.11 12.786 147.53 13.53C147.962 14.274 148.178 15.15 148.178 16.158C148.178 17.178 147.962 18.06 147.53 18.804C147.11 19.548 146.534 20.124 145.802 20.532C145.082 20.94 144.266 21.144 143.354 21.144ZM137.63 24.492V11.316H140.312V13.296L140.258 16.176L140.438 19.038V24.492H137.63ZM142.868 18.84C143.336 18.84 143.75 18.732 144.11 18.516C144.482 18.3 144.776 17.994 144.992 17.598C145.22 17.19 145.334 16.71 145.334 16.158C145.334 15.594 145.22 15.114 144.992 14.718C144.776 14.322 144.482 14.016 144.11 13.8C143.75 13.584 143.336 13.476 142.868 13.476C142.4 13.476 141.98 13.584 141.608 13.8C141.236 14.016 140.942 14.322 140.726 14.718C140.51 15.114 140.402 15.594 140.402 16.158C140.402 16.71 140.51 17.19 140.726 17.598C140.942 17.994 141.236 18.3 141.608 18.516C141.98 18.732 142.4 18.84 142.868 18.84ZM150.058 21V11.316H152.866V21H150.058ZM151.462 9.966C150.946 9.966 150.526 9.816 150.202 9.516C149.878 9.216 149.716 8.844 149.716 8.4C149.716 7.956 149.878 7.584 150.202 7.284C150.526 6.984 150.946 6.834 151.462 6.834C151.978 6.834 152.398 6.978 152.722 7.266C153.046 7.542 153.208 7.902 153.208 8.346C153.208 8.814 153.046 9.204 152.722 9.516C152.41 9.816 151.99 9.966 151.462 9.966ZM154.248 21L158.586 15.312L158.532 16.86L154.374 11.316H157.524L160.152 14.934L158.964 14.97L161.682 11.316H164.67L160.494 16.806V15.294L164.814 21H161.628L158.874 17.148L160.044 17.31L157.308 21H154.248ZM33.976 51.144C32.932 51.144 32.002 50.934 31.186 50.514C30.37 50.082 29.728 49.488 29.26 48.732C28.804 47.976 28.576 47.118 28.576 46.158C28.576 45.186 28.804 44.328 29.26 43.584C29.728 42.828 30.37 42.24 31.186 41.82C32.002 41.388 32.932 41.172 33.976 41.172C34.996 41.172 35.884 41.388 36.64 41.82C37.396 42.24 37.954 42.846 38.314 43.638L36.136 44.808C35.884 44.352 35.566 44.016 35.182 43.8C34.81 43.584 34.402 43.476 33.958 43.476C33.478 43.476 33.046 43.584 32.662 43.8C32.278 44.016 31.972 44.322 31.744 44.718C31.528 45.114 31.42 45.594 31.42 46.158C31.42 46.722 31.528 47.202 31.744 47.598C31.972 47.994 32.278 48.3 32.662 48.516C33.046 48.732 33.478 48.84 33.958 48.84C34.402 48.84 34.81 48.738 35.182 48.534C35.566 48.318 35.884 47.976 36.136 47.508L38.314 48.696C37.954 49.476 37.396 50.082 36.64 50.514C35.884 50.934 34.996 51.144 33.976 51.144ZM45.8708 51V49.11L45.6908 48.696V45.312C45.6908 44.712 45.5048 44.244 45.1328 43.908C44.7728 43.572 44.2148 43.404 43.4588 43.404C42.9428 43.404 42.4328 43.488 41.9288 43.656C41.4368 43.812 41.0168 44.028 40.6688 44.304L39.6608 42.342C40.1888 41.97 40.8248 41.682 41.5688 41.478C42.3128 41.274 43.0688 41.172 43.8368 41.172C45.3128 41.172 46.4588 41.52 47.2748 42.216C48.0908 42.912 48.4988 43.998 48.4988 45.474V51H45.8708ZM42.9188 51.144C42.1628 51.144 41.5148 51.018 40.9748 50.766C40.4348 50.502 40.0208 50.148 39.7328 49.704C39.4448 49.26 39.3008 48.762 39.3008 48.21C39.3008 47.634 39.4388 47.13 39.7148 46.698C40.0028 46.266 40.4528 45.93 41.0648 45.69C41.6768 45.438 42.4748 45.312 43.4588 45.312H46.0328V46.95H43.7648C43.1048 46.95 42.6488 47.058 42.3968 47.274C42.1568 47.49 42.0368 47.76 42.0368 48.084C42.0368 48.444 42.1748 48.732 42.4508 48.948C42.7388 49.152 43.1288 49.254 43.6208 49.254C44.0888 49.254 44.5088 49.146 44.8808 48.93C45.2528 48.702 45.5228 48.372 45.6908 47.94L46.1228 49.236C45.9188 49.86 45.5468 50.334 45.0068 50.658C44.4668 50.982 43.7708 51.144 42.9188 51.144ZM51.0401 51V41.316H53.7221V44.052L53.3441 43.26C53.6321 42.576 54.0941 42.06 54.7301 41.712C55.3661 41.352 56.1401 41.172 57.0521 41.172V43.764C56.9321 43.752 56.8241 43.746 56.7281 43.746C56.6321 43.734 56.5301 43.728 56.4221 43.728C55.6541 43.728 55.0301 43.95 54.5501 44.394C54.0821 44.826 53.8481 45.504 53.8481 46.428V51H51.0401ZM63.0158 51.144C61.8758 51.144 60.9878 50.856 60.3518 50.28C59.7158 49.692 59.3978 48.822 59.3978 47.67V39.174H62.2058V47.634C62.2058 48.042 62.3138 48.36 62.5298 48.588C62.7458 48.804 63.0398 48.912 63.4118 48.912C63.8558 48.912 64.2338 48.792 64.5458 48.552L65.3018 50.532C65.0138 50.736 64.6658 50.892 64.2578 51C63.8618 51.096 63.4478 51.144 63.0158 51.144ZM57.9038 43.692V41.532H64.6178V43.692H57.9038ZM72.818 51V49.11L72.638 48.696V45.312C72.638 44.712 72.452 44.244 72.08 43.908C71.72 43.572 71.162 43.404 70.406 43.404C69.89 43.404 69.38 43.488 68.876 43.656C68.384 43.812 67.964 44.028 67.616 44.304L66.608 42.342C67.136 41.97 67.772 41.682 68.516 41.478C69.26 41.274 70.016 41.172 70.784 41.172C72.26 41.172 73.406 41.52 74.222 42.216C75.038 42.912 75.446 43.998 75.446 45.474V51H72.818ZM69.866 51.144C69.11 51.144 68.462 51.018 67.922 50.766C67.382 50.502 66.968 50.148 66.68 49.704C66.392 49.26 66.248 48.762 66.248 48.21C66.248 47.634 66.386 47.13 66.662 46.698C66.95 46.266 67.4 45.93 68.012 45.69C68.624 45.438 69.422 45.312 70.406 45.312H72.98V46.95H70.712C70.052 46.95 69.596 47.058 69.344 47.274C69.104 47.49 68.984 47.76 68.984 48.084C68.984 48.444 69.122 48.732 69.398 48.948C69.686 49.152 70.076 49.254 70.568 49.254C71.036 49.254 71.456 49.146 71.828 48.93C72.2 48.702 72.47 48.372 72.638 47.94L73.07 49.236C72.866 49.86 72.494 50.334 71.954 50.658C71.414 50.982 70.718 51.144 69.866 51.144ZM72.422 40.128C72.11 40.128 71.834 40.074 71.594 39.966C71.354 39.846 71.138 39.714 70.946 39.57C70.754 39.414 70.574 39.282 70.406 39.174C70.238 39.054 70.07 38.994 69.902 38.994C69.662 38.994 69.464 39.084 69.308 39.264C69.152 39.432 69.062 39.678 69.038 40.002H67.616C67.64 39.198 67.838 38.562 68.21 38.094C68.582 37.614 69.086 37.374 69.722 37.374C70.034 37.374 70.31 37.434 70.55 37.554C70.79 37.662 71.006 37.794 71.198 37.95C71.402 38.106 71.588 38.244 71.756 38.364C71.924 38.472 72.086 38.526 72.242 38.526C72.494 38.526 72.698 38.442 72.854 38.274C73.01 38.094 73.094 37.854 73.106 37.554H74.528C74.516 38.322 74.318 38.946 73.934 39.426C73.562 39.894 73.058 40.128 72.422 40.128ZM82.6657 51.144C81.6337 51.144 80.7157 50.928 79.9117 50.496C79.1197 50.064 78.4897 49.476 78.0217 48.732C77.5657 47.976 77.3377 47.118 77.3377 46.158C77.3377 45.186 77.5657 44.328 78.0217 43.584C78.4897 42.828 79.1197 42.24 79.9117 41.82C80.7157 41.388 81.6337 41.172 82.6657 41.172C83.6857 41.172 84.5977 41.388 85.4017 41.82C86.2057 42.24 86.8357 42.822 87.2917 43.566C87.7477 44.31 87.9757 45.174 87.9757 46.158C87.9757 47.118 87.7477 47.976 87.2917 48.732C86.8357 49.476 86.2057 50.064 85.4017 50.496C84.5977 50.928 83.6857 51.144 82.6657 51.144ZM82.6657 48.84C83.1337 48.84 83.5537 48.732 83.9257 48.516C84.2977 48.3 84.5917 47.994 84.8077 47.598C85.0237 47.19 85.1317 46.71 85.1317 46.158C85.1317 45.594 85.0237 45.114 84.8077 44.718C84.5917 44.322 84.2977 44.016 83.9257 43.8C83.5537 43.584 83.1337 43.476 82.6657 43.476C82.1977 43.476 81.7777 43.584 81.4057 43.8C81.0337 44.016 80.7337 44.322 80.5057 44.718C80.2897 45.114 80.1817 45.594 80.1817 46.158C80.1817 46.71 80.2897 47.19 80.5057 47.598C80.7337 47.994 81.0337 48.3 81.4057 48.516C81.7777 48.732 82.1977 48.84 82.6657 48.84ZM127.585 51.144C126.673 51.144 125.851 50.94 125.119 50.532C124.387 50.112 123.805 49.53 123.373 48.786C122.953 48.042 122.743 47.166 122.743 46.158C122.743 45.138 122.953 44.256 123.373 43.512C123.805 42.768 124.387 42.192 125.119 41.784C125.851 41.376 126.673 41.172 127.585 41.172C128.401 41.172 129.115 41.352 129.727 41.712C130.339 42.072 130.813 42.618 131.149 43.35C131.485 44.082 131.653 45.018 131.653 46.158C131.653 47.286 131.491 48.222 131.167 48.966C130.843 49.698 130.375 50.244 129.763 50.604C129.163 50.964 128.437 51.144 127.585 51.144ZM128.071 48.84C128.527 48.84 128.941 48.732 129.313 48.516C129.685 48.3 129.979 47.994 130.195 47.598C130.423 47.19 130.537 46.71 130.537 46.158C130.537 45.594 130.423 45.114 130.195 44.718C129.979 44.322 129.685 44.016 129.313 43.8C128.941 43.584 128.527 43.476 128.071 43.476C127.603 43.476 127.183 43.584 126.811 43.8C126.439 44.016 126.139 44.322 125.911 44.718C125.695 45.114 125.587 45.594 125.587 46.158C125.587 46.71 125.695 47.19 125.911 47.598C126.139 47.994 126.439 48.3 126.811 48.516C127.183 48.732 127.603 48.84 128.071 48.84ZM130.609 51V49.02L130.663 46.14L130.483 43.278V37.644H133.291V51H130.609ZM135.89 51V41.316H138.698V51H135.89ZM137.294 39.966C136.778 39.966 136.358 39.816 136.034 39.516C135.71 39.216 135.548 38.844 135.548 38.4C135.548 37.956 135.71 37.584 136.034 37.284C136.358 36.984 136.778 36.834 137.294 36.834C137.81 36.834 138.23 36.978 138.554 37.266C138.878 37.542 139.04 37.902 139.04 38.346C139.04 38.814 138.878 39.204 138.554 39.516C138.242 39.816 137.822 39.966 137.294 39.966ZM147.19 41.172C147.958 41.172 148.642 41.328 149.242 41.64C149.854 41.94 150.334 42.408 150.682 43.044C151.03 43.668 151.204 44.472 151.204 45.456V51H148.396V45.888C148.396 45.108 148.222 44.532 147.874 44.16C147.538 43.788 147.058 43.602 146.434 43.602C145.99 43.602 145.588 43.698 145.228 43.89C144.88 44.07 144.604 44.352 144.4 44.736C144.208 45.12 144.112 45.612 144.112 46.212V51H141.304V41.316H143.986V43.998L143.482 43.188C143.83 42.54 144.328 42.042 144.976 41.694C145.624 41.346 146.362 41.172 147.19 41.172ZM159.635 41.172C160.403 41.172 161.087 41.328 161.687 41.64C162.299 41.94 162.779 42.408 163.127 43.044C163.475 43.668 163.649 44.472 163.649 45.456V51H160.841V45.888C160.841 45.108 160.667 44.532 160.319 44.16C159.983 43.788 159.503 43.602 158.879 43.602C158.435 43.602 158.033 43.698 157.673 43.89C157.325 44.07 157.049 44.352 156.845 44.736C156.653 45.12 156.557 45.612 156.557 46.212V51H153.749V37.644H156.557V43.998L155.927 43.188C156.275 42.54 156.773 42.042 157.421 41.694C158.069 41.346 158.807 41.172 159.635 41.172ZM171.071 51.144C169.967 51.144 168.995 50.928 168.155 50.496C167.327 50.064 166.685 49.476 166.229 48.732C165.773 47.976 165.545 47.118 165.545 46.158C165.545 45.186 165.767 44.328 166.211 43.584C166.667 42.828 167.285 42.24 168.065 41.82C168.845 41.388 169.727 41.172 170.711 41.172C171.659 41.172 172.511 41.376 173.267 41.784C174.035 42.18 174.641 42.756 175.085 43.512C175.529 44.256 175.751 45.15 175.751 46.194C175.751 46.302 175.745 46.428 175.733 46.572C175.721 46.704 175.709 46.83 175.697 46.95H167.831V45.312H174.221L173.141 45.798C173.141 45.294 173.039 44.856 172.835 44.484C172.631 44.112 172.349 43.824 171.989 43.62C171.629 43.404 171.209 43.296 170.729 43.296C170.249 43.296 169.823 43.404 169.451 43.62C169.091 43.824 168.809 44.118 168.605 44.502C168.401 44.874 168.299 45.318 168.299 45.834V46.266C168.299 46.794 168.413 47.262 168.641 47.67C168.881 48.066 169.211 48.372 169.631 48.588C170.063 48.792 170.567 48.894 171.143 48.894C171.659 48.894 172.109 48.816 172.493 48.66C172.889 48.504 173.249 48.27 173.573 47.958L175.067 49.578C174.623 50.082 174.065 50.472 173.393 50.748C172.721 51.012 171.947 51.144 171.071 51.144ZM177.62 51V41.316H180.428V51H177.62ZM179.024 39.966C178.508 39.966 178.088 39.816 177.764 39.516C177.44 39.216 177.278 38.844 177.278 38.4C177.278 37.956 177.44 37.584 177.764 37.284C178.088 36.984 178.508 36.834 179.024 36.834C179.54 36.834 179.96 36.978 180.284 37.266C180.608 37.542 180.77 37.902 180.77 38.346C180.77 38.814 180.608 39.204 180.284 39.516C179.972 39.816 179.552 39.966 179.024 39.966ZM183.034 51V41.316H185.716V44.052L185.338 43.26C185.626 42.576 186.088 42.06 186.724 41.712C187.36 41.352 188.134 41.172 189.046 41.172V43.764C188.926 43.752 188.818 43.746 188.722 43.746C188.626 43.734 188.524 43.728 188.416 43.728C187.648 43.728 187.024 43.95 186.544 44.394C186.076 44.826 185.842 45.504 185.842 46.428V51H183.034ZM195.254 51.144C194.222 51.144 193.304 50.928 192.5 50.496C191.708 50.064 191.078 49.476 190.61 48.732C190.154 47.976 189.926 47.118 189.926 46.158C189.926 45.186 190.154 44.328 190.61 43.584C191.078 42.828 191.708 42.24 192.5 41.82C193.304 41.388 194.222 41.172 195.254 41.172C196.274 41.172 197.186 41.388 197.99 41.82C198.794 42.24 199.424 42.822 199.88 43.566C200.336 44.31 200.564 45.174 200.564 46.158C200.564 47.118 200.336 47.976 199.88 48.732C199.424 49.476 198.794 50.064 197.99 50.496C197.186 50.928 196.274 51.144 195.254 51.144ZM195.254 48.84C195.722 48.84 196.142 48.732 196.514 48.516C196.886 48.3 197.18 47.994 197.396 47.598C197.612 47.19 197.72 46.71 197.72 46.158C197.72 45.594 197.612 45.114 197.396 44.718C197.18 44.322 196.886 44.016 196.514 43.8C196.142 43.584 195.722 43.476 195.254 43.476C194.786 43.476 194.366 43.584 193.994 43.8C193.622 44.016 193.322 44.322 193.094 44.718C192.878 45.114 192.77 45.594 192.77 46.158C192.77 46.71 192.878 47.19 193.094 47.598C193.322 47.994 193.622 48.3 193.994 48.516C194.366 48.732 194.786 48.84 195.254 48.84Z" fill="#F70000"/>
<path d="M33.7489 71.0755H28.0815L28 71.4466C29.1637 71.7016 30.4904 72.1075 31.2818 72.5365C31.7705 72.8031 31.9102 73.035 32.0731 73.6611L34.7265 83.8993H38.2526L43.6524 71.0755H40.1495L36.6932 79.8063L35.2851 72.3857C35.1221 71.5625 34.4704 71.0755 33.7489 71.0755Z" fill="url(#paint0_linear_118_125)"/>
<path d="M48.4121 71.0755H45.0838L42.3257 83.9109H45.6657L48.4121 71.0755Z" fill="url(#paint1_linear_118_125)"/>
<path d="M63.6921 71.0755C63.0521 71.0755 62.5167 71.4466 62.2723 72.0147L57.2799 83.8993H60.7711L61.4694 81.9862H65.7403L66.1476 83.8993H69.2316L66.5317 71.0755H63.6921ZM62.4236 79.3657L64.1809 74.5539L65.1934 79.3657H62.4236Z" fill="url(#paint2_linear_118_125)"/>
<path d="M57.4544 79.7252C57.4661 76.3395 52.7529 76.154 52.7878 74.6351C52.7994 74.1713 53.2417 73.6843 54.1959 73.5568C54.6731 73.4988 55.9881 73.4524 57.4777 74.1249L58.0596 71.4002C57.2566 71.1103 56.2209 70.832 54.9407 70.832C51.6473 70.832 49.3315 72.5712 49.3082 75.0757C49.2849 76.9193 50.9607 77.9512 52.2292 78.5657C53.521 79.1918 53.9632 79.5976 53.9516 80.1542C53.9399 81.0122 52.9158 81.3948 51.9616 81.4064C50.2858 81.4296 49.3198 80.9542 48.5401 80.5948L47.935 83.4007C48.7147 83.7601 50.1461 84.0616 51.6357 84.0848C55.1502 84.108 57.4428 82.392 57.4544 79.7252Z" fill="url(#paint3_linear_118_125)"/>
<path d="M104.231 70.5891H96.187V85.046H104.231V70.5891Z" fill="#FF5F00"/>
<path d="M96.6963 77.8196C96.6948 76.4271 97.0102 75.0525 97.6186 73.7999C98.2269 72.5474 99.1123 71.4496 100.208 70.5899C98.8515 69.524 97.2227 68.8612 95.5075 68.6772C93.7924 68.4932 92.06 68.7955 90.5085 69.5495C88.9571 70.3034 87.649 71.4787 86.7338 72.9409C85.8187 74.4031 85.3334 76.0933 85.3334 77.8183C85.3334 79.5433 85.8187 81.2335 86.7338 82.6958C87.649 84.158 88.9571 85.3332 90.5085 86.0872C92.06 86.8412 93.7924 87.1435 95.5075 86.9595C97.2227 86.7755 98.8515 86.1127 100.208 85.0468C99.1127 84.1873 98.2275 83.09 97.6191 81.8379C97.0108 80.5858 96.6952 79.2117 96.6963 77.8196V77.8196Z" fill="#EB001B"/>
<path d="M115.084 77.8187C115.084 79.5438 114.599 81.2341 113.683 82.6964C112.768 84.1587 111.46 85.3339 109.908 86.0878C108.356 86.8417 106.624 87.1437 104.909 86.9595C103.193 86.7752 101.565 86.1121 100.208 85.0459C101.303 84.1856 102.188 83.088 102.797 81.8358C103.405 80.5837 103.721 79.2096 103.721 77.8174C103.721 76.4252 103.405 75.0512 102.797 73.799C102.188 72.5469 101.303 71.4493 100.208 70.589C101.565 69.5228 103.193 68.8596 104.909 68.6754C106.624 68.4911 108.356 68.7932 109.908 69.5471C111.46 70.301 112.768 71.4762 113.683 72.9385C114.599 74.4007 115.084 76.091 115.084 77.8162V77.8187Z" fill="#F79E1B"/>
<path fill-rule="evenodd" clip-rule="evenodd" d="M140.181 70.0957C139.018 70.0957 136.671 70.0957 136.671 70.0957C135.121 70.1688 133.858 70.7931 133.486 72.0817C133.293 72.7525 133.187 73.4898 133.04 74.1872C132.282 77.7208 131.611 81.3541 130.886 84.8213H158.213C160.327 84.8213 161.776 84.3762 162.169 82.7024C162.348 81.9253 162.528 81.0419 162.701 80.1851C163.379 76.8574 164.064 73.523 164.755 70.0957H140.181Z" fill="#C61218"/>
<path fill-rule="evenodd" clip-rule="evenodd" d="M139.908 75.3297C140.055 75.2301 140.247 74.7718 140.028 74.5792C139.962 74.5194 139.842 74.4995 139.682 74.526C139.536 74.5526 139.45 74.5991 139.39 74.6788C139.297 74.805 139.21 75.1902 139.356 75.3297C139.503 75.4692 139.815 75.3962 139.908 75.3297ZM137.821 74.5792C137.714 75.2633 137.595 75.9275 137.475 76.5984C136.717 76.605 135.939 76.6316 135.201 76.5784C135.341 75.9275 135.44 75.2301 135.58 74.5792H134.756C134.463 76.2463 134.19 77.9401 133.865 79.574H134.702C134.835 78.7371 134.955 77.8869 135.128 77.0965C135.846 77.0766 136.704 77.05 137.388 77.1165C137.249 77.9467 137.076 78.7438 136.943 79.5807H137.781C138.053 77.8869 138.333 76.2131 138.672 74.5858H137.821V74.5792ZM149.689 76.0139C149.037 75.7482 148.525 76.1932 148.286 76.6117C148.339 76.4257 148.359 76.2065 148.405 76.0139H147.754C147.594 77.2493 147.362 78.405 147.136 79.574H147.874C147.98 78.8833 148.02 77.9467 148.253 77.2825C148.439 76.7511 148.917 76.2995 149.602 76.5452C149.609 76.346 149.669 76.1998 149.689 76.0139ZM150.101 78.7371C150.034 78.5644 150.014 78.2722 150.034 78.053C150.074 77.5615 150.254 76.957 150.533 76.6847C150.919 76.3061 151.677 76.3725 152.282 76.5851C152.302 76.3792 152.342 76.1998 152.368 76.0006C151.377 75.8412 150.433 75.9408 149.935 76.4655C149.449 76.977 149.124 78.1526 149.35 78.8965C149.616 79.76 150.799 79.8132 151.763 79.4811C151.803 79.3084 151.83 79.1157 151.863 78.9364C151.338 79.1954 150.334 79.3349 150.101 78.7371ZM158.372 76.0338C157.72 75.7083 157.182 76.253 156.969 76.5784C157.029 76.4124 157.036 76.1866 157.089 76.0139H156.437C156.264 77.236 156.052 78.4183 155.806 79.574H156.557C156.563 79.1025 156.657 78.7504 156.73 78.2921C156.889 77.3024 157.115 76.2198 158.272 76.5452C158.305 76.3792 158.319 76.1866 158.372 76.0338ZM139.157 76.0139C139.137 76.0139 139.137 76.0404 139.137 76.067C138.978 77.2759 138.758 78.4316 138.519 79.574H139.257C139.436 78.3519 139.636 77.1563 139.888 76.0139H139.157ZM145.626 75.9474C145.094 75.9873 144.642 76.1401 144.323 76.4788C143.931 76.8906 143.612 77.8006 143.705 78.6375C143.838 79.8198 145.314 79.7799 146.497 79.4943C146.517 79.2884 146.57 79.1091 146.597 78.9098C146.112 79.0892 145.267 79.3482 144.762 79.0294C144.383 78.7903 144.383 78.1858 144.503 77.6611C145.294 77.6345 146.125 77.6412 146.916 77.6611C146.969 77.2892 147.109 76.884 146.983 76.512C146.83 76.0272 146.238 75.901 145.626 75.9474ZM146.331 77.2493H144.602C144.656 76.8508 145.015 76.4124 145.58 76.3925C146.105 76.3725 146.491 76.5851 146.331 77.2493ZM142.84 76.0139C142.215 75.7814 141.458 76.0604 141.132 76.326C141.132 76.3393 141.125 76.3393 141.112 76.3393C141.118 76.3327 141.125 76.3327 141.132 76.326C141.138 76.2131 141.178 76.1334 141.185 76.0205H140.553C140.287 77.774 139.975 79.4811 139.649 81.1681H140.387C140.493 80.5106 140.567 79.8198 140.713 79.2021C140.879 79.853 141.976 79.7268 142.442 79.4744C143.386 78.9563 144.124 76.4987 142.84 76.0139ZM142.255 78.9032C141.863 79.3216 140.892 79.315 140.819 78.6109C140.786 78.3054 140.899 77.9866 140.959 77.6678C141.019 77.3489 141.059 77.0434 141.112 76.7578C141.497 76.2862 142.641 76.2264 142.754 77.0168C142.854 77.7076 142.581 78.5578 142.255 78.9032ZM161.111 74.4729C161.051 75.0242 160.965 75.5556 160.852 76.067C159.043 75.4958 157.94 76.8242 157.96 78.4648C157.966 78.7836 158.02 79.0958 158.219 79.3216C158.558 79.7069 159.542 79.7999 160.034 79.4744C160.127 79.4146 160.227 79.2951 160.293 79.2154C160.34 79.1556 160.42 78.9962 160.433 79.0427C160.406 79.2154 160.367 79.3748 160.367 79.574H161.031C161.158 77.7275 161.557 76.1534 161.856 74.4795H161.111V74.4729ZM159.462 79.1822C158.964 79.1954 158.718 78.8833 158.711 78.3785C158.691 77.4884 159.083 76.4987 159.875 76.4124C160.247 76.3725 160.513 76.4589 160.785 76.5519C160.533 77.5416 160.626 79.1556 159.462 79.1822ZM153.113 76.0139C153.08 76.2198 153.02 76.3991 152.973 76.5984C153.405 76.4921 154.762 76.1534 154.888 76.7379C154.935 76.9305 154.855 77.1364 154.802 77.2825C153.578 77.1696 152.581 77.3689 152.322 78.239C152.149 78.8235 152.342 79.3947 152.714 79.5541C153.432 79.8597 154.31 79.5076 154.615 79.0227C154.582 79.1888 154.556 79.3615 154.562 79.5674H155.194C155.2 78.963 155.287 78.4715 155.38 77.9268C155.46 77.4618 155.606 77.0035 155.586 76.5917C155.54 75.6552 153.984 75.9873 153.113 76.0139ZM154.31 78.8899C153.931 79.2619 152.867 79.3681 152.973 78.4781C153.066 77.7408 153.864 77.588 154.735 77.6943C154.675 78.0929 154.602 78.6043 154.31 78.8899Z" fill="white"/>
<path fill-rule="evenodd" clip-rule="evenodd" d="M190.725 69.1631C195.472 69.1631 199.322 73.008 199.322 77.7551C199.322 82.5021 195.472 86.352 190.725 86.352C185.978 86.352 182.133 82.5021 182.133 77.7551C182.133 73.008 185.978 69.1631 190.725 69.1631Z" fill="black" stroke="black" stroke-width="0.456405" stroke-miterlimit="22.9256"/>
<path fill-rule="evenodd" clip-rule="evenodd" d="M187.033 75.4531C188.28 75.4531 189.32 76.3158 189.601 77.4742L188.536 77.9376L187.447 78.4157L184.834 79.5593C184.553 79.1403 184.391 78.6375 184.391 78.0953C184.391 76.6362 185.574 75.4531 187.033 75.4531ZM188.167 77.0946L185.529 78.2333C185.525 78.189 185.525 78.1397 185.525 78.0953C185.525 77.2622 186.2 76.582 187.038 76.582C187.486 76.582 187.891 76.7841 188.167 77.0946Z" fill="white"/>
<path fill-rule="evenodd" clip-rule="evenodd" d="M188.882 79.9832C187.935 80.8804 186.683 80.9691 185.584 80.3036L186.205 79.3572C186.831 79.7318 187.457 79.6727 188.088 79.1748L188.882 79.9832Z" fill="white"/>
<path fill-rule="evenodd" clip-rule="evenodd" d="M189.956 79.3326L189.951 74.3391H190.893V79.1995C190.893 79.2439 190.898 79.2883 190.962 79.3129L191.785 79.6333L191.415 80.5995L190.449 80.1903C190.084 80.0277 189.956 79.8059 189.956 79.3326Z" fill="white"/>
<path fill-rule="evenodd" clip-rule="evenodd" d="M193.52 79.249C193.165 78.9729 192.938 78.5441 192.938 78.061C192.938 77.6321 193.121 77.2427 193.407 76.9666L192.795 75.9758C192.179 76.4638 191.785 77.2131 191.785 78.061C191.785 78.9729 192.243 79.7764 192.943 80.2546L193.52 79.249Z" fill="#009DD7"/>
<path fill-rule="evenodd" clip-rule="evenodd" d="M193.934 76.6362C194.092 76.5771 194.264 76.5475 194.442 76.5475C195.088 76.5475 195.64 76.9517 195.852 77.5235L197.025 77.4249C196.744 76.2616 195.694 75.3989 194.442 75.3989C194.087 75.3989 193.752 75.4679 193.441 75.5961L193.934 76.6362Z" fill="#FFF200"/>
<path fill-rule="evenodd" clip-rule="evenodd" d="M195.95 78.1299C195.911 78.9285 195.25 79.5643 194.447 79.5643C194.319 79.5643 194.196 79.5496 194.082 79.52L193.624 80.5847C193.885 80.6685 194.161 80.7178 194.452 80.7178C195.881 80.7178 197.05 79.5841 197.109 78.1693L195.95 78.1299Z" fill="#E33206"/>
<defs>
<linearGradient id="paint0_linear_118_125" x1="69.1966" y1="84.05" x2="28" y2="84.05" gradientUnits="userSpaceOnUse">
<stop stop-color="#0076FF"/>
<stop offset="1" stop-color="#0011AD"/>
</linearGradient>
<linearGradient id="paint1_linear_118_125" x1="69.1966" y1="84.05" x2="28" y2="84.05" gradientUnits="userSpaceOnUse">
<stop stop-color="#0076FF"/>
<stop offset="1" stop-color="#0011AD"/>
</linearGradient>
<linearGradient id="paint2_linear_118_125" x1="69.1966" y1="84.05" x2="28" y2="84.05" gradientUnits="userSpaceOnUse">
<stop stop-color="#0076FF"/>
<stop offset="1" stop-color="#0011AD"/>
</linearGradient>
<linearGradient id="paint3_linear_118_125" x1="69.1966" y1="84.05" x2="28" y2="84.05" gradientUnits="userSpaceOnUse">
<stop stop-color="#0076FF"/>
<stop offset="1" stop-color="#0011AD"/>
</linearGradient>
</defs>
</svg>
