<svg width="70" height="70" viewBox="0 0 70 70" fill="none" xmlns="http://www.w3.org/2000/svg">
<g clip-path="url(#clip0_80_186)">
<path d="M58.2436 22.3462C61.75 24.5608 62.9416 29.0975 60.9036 32.4789C59.2585 35.2086 54.2427 40.9852 39.3573 40.6257C39.0914 40.618 38.8295 40.5374 38.6001 40.3925C38.3708 40.2476 38.1828 40.0442 38.0569 39.8043C31.0656 26.3469 33.8589 19.1666 35.5041 16.4369C37.5421 13.0555 42.0374 12.1106 45.5438 14.3252C49.0502 16.5398 49.6574 22.0461 49.6574 22.0461C49.6574 22.0461 54.7372 20.1316 58.2436 22.3462Z" stroke="#FF607B" stroke-width="2" stroke-linecap="round" stroke-linejoin="round"/>
</g>
<g clip-path="url(#clip1_80_186)">
<path d="M20.2648 40.1733C22.4684 38.6331 25.509 39.0595 27.0558 41.1267C28.3044 42.7954 30.5695 47.2439 26.6912 56.0521C26.6212 56.2091 26.5079 56.3455 26.3638 56.4462C26.2196 56.547 26.0502 56.6082 25.874 56.6233C16.0043 57.4246 12.3425 53.9523 11.0939 52.2836C9.54713 50.2165 10.0803 47.2919 12.2839 45.7517C14.4874 44.2115 17.9716 45.2308 17.9716 45.2308C17.9716 45.2308 18.0613 41.7135 20.2648 40.1733Z" stroke="#FF607B" stroke-width="2" stroke-linecap="round" stroke-linejoin="round"/>
</g>
<defs>
<clipPath id="clip0_80_186">
<rect width="35.5219" height="35.1988" fill="white" transform="matrix(-0.858049 -0.541931 -0.508264 0.843314 69.3698 24.2504)"/>
</clipPath>
<clipPath id="clip1_80_186">
<rect width="23.0089" height="23.0298" fill="white" transform="matrix(-0.832472 0.581875 0.58959 0.787941 24.1542 34.0001)"/>
</clipPath>
</defs>
</svg>
