<svg width="248" height="68" viewBox="0 0 248 68" fill="none" xmlns="http://www.w3.org/2000/svg">
<path d="M30.052 37V24.4H35.182C36.526 24.4 37.702 24.67 38.71 25.21C39.73 25.738 40.522 26.476 41.086 27.424C41.65 28.372 41.932 29.464 41.932 30.7C41.932 31.936 41.65 33.028 41.086 33.976C40.522 34.924 39.73 35.668 38.71 36.208C37.702 36.736 36.526 37 35.182 37H30.052ZM31.384 35.848H35.11C36.226 35.848 37.192 35.632 38.008 35.2C38.836 34.756 39.478 34.15 39.934 33.382C40.39 32.602 40.618 31.708 40.618 30.7C40.618 29.68 40.39 28.786 39.934 28.018C39.478 27.25 38.836 26.65 38.008 26.218C37.192 25.774 36.226 25.552 35.11 25.552H31.384V35.848ZM50.5751 37V34.912L50.5211 34.57V31.078C50.5211 30.274 50.2931 29.656 49.8371 29.224C49.3931 28.792 48.7271 28.576 47.8391 28.576C47.2271 28.576 46.6451 28.678 46.0931 28.882C45.5411 29.086 45.0731 29.356 44.6891 29.692L44.1131 28.738C44.5931 28.33 45.1691 28.018 45.8411 27.802C46.5131 27.574 47.2211 27.46 47.9651 27.46C49.1891 27.46 50.1311 27.766 50.7911 28.378C51.4631 28.978 51.7991 29.896 51.7991 31.132V37H50.5751ZM47.3171 37.09C46.6091 37.09 45.9911 36.976 45.4631 36.748C44.9471 36.508 44.5511 36.184 44.2751 35.776C43.9991 35.356 43.8611 34.876 43.8611 34.336C43.8611 33.844 43.9751 33.4 44.2031 33.004C44.4431 32.596 44.8271 32.272 45.3551 32.032C45.8951 31.78 46.6151 31.654 47.5151 31.654H50.7731V32.608H47.5511C46.6391 32.608 46.0031 32.77 45.6431 33.094C45.2951 33.418 45.1211 33.82 45.1211 34.3C45.1211 34.84 45.3311 35.272 45.7511 35.596C46.1711 35.92 46.7591 36.082 47.5151 36.082C48.2351 36.082 48.8531 35.92 49.3691 35.596C49.8971 35.26 50.2811 34.78 50.5211 34.156L50.8091 35.038C50.5691 35.662 50.1491 36.16 49.5491 36.532C48.9611 36.904 48.2171 37.09 47.3171 37.09ZM57.8083 37.09C57.0283 37.09 56.2903 36.982 55.5943 36.766C54.8983 36.538 54.3523 36.256 53.9563 35.92L54.5323 34.912C54.9163 35.2 55.4083 35.452 56.0083 35.668C56.6083 35.872 57.2383 35.974 57.8983 35.974C58.7983 35.974 59.4463 35.836 59.8423 35.56C60.2383 35.272 60.4363 34.894 60.4363 34.426C60.4363 34.078 60.3223 33.808 60.0943 33.616C59.8783 33.412 59.5903 33.262 59.2303 33.166C58.8703 33.058 58.4683 32.968 58.0243 32.896C57.5803 32.824 57.1363 32.74 56.6923 32.644C56.2603 32.548 55.8643 32.41 55.5043 32.23C55.1443 32.038 54.8503 31.78 54.6223 31.456C54.4063 31.132 54.2983 30.7 54.2983 30.16C54.2983 29.644 54.4423 29.182 54.7303 28.774C55.0183 28.366 55.4383 28.048 55.9903 27.82C56.5543 27.58 57.2383 27.46 58.0423 27.46C58.6543 27.46 59.2663 27.544 59.8783 27.712C60.4903 27.868 60.9943 28.078 61.3903 28.342L60.8323 29.368C60.4123 29.08 59.9623 28.876 59.4823 28.756C59.0023 28.624 58.5223 28.558 58.0423 28.558C57.1903 28.558 56.5603 28.708 56.1523 29.008C55.7563 29.296 55.5583 29.668 55.5583 30.124C55.5583 30.484 55.6663 30.766 55.8823 30.97C56.1103 31.174 56.4043 31.336 56.7643 31.456C57.1363 31.564 57.5383 31.654 57.9703 31.726C58.4143 31.798 58.8523 31.888 59.2843 31.996C59.7283 32.092 60.1303 32.23 60.4903 32.41C60.8623 32.578 61.1563 32.824 61.3723 33.148C61.6003 33.46 61.7143 33.874 61.7143 34.39C61.7143 34.942 61.5583 35.422 61.2463 35.83C60.9463 36.226 60.5023 36.538 59.9143 36.766C59.3383 36.982 58.6363 37.09 57.8083 37.09ZM157.481 37V34.912L157.427 34.57V31.078C157.427 30.274 157.199 29.656 156.743 29.224C156.299 28.792 155.633 28.576 154.745 28.576C154.133 28.576 153.551 28.678 152.999 28.882C152.447 29.086 151.979 29.356 151.595 29.692L151.019 28.738C151.499 28.33 152.075 28.018 152.747 27.802C153.419 27.574 154.127 27.46 154.871 27.46C156.095 27.46 157.037 27.766 157.697 28.378C158.369 28.978 158.705 29.896 158.705 31.132V37H157.481ZM154.223 37.09C153.515 37.09 152.897 36.976 152.369 36.748C151.853 36.508 151.457 36.184 151.181 35.776C150.905 35.356 150.767 34.876 150.767 34.336C150.767 33.844 150.881 33.4 151.109 33.004C151.349 32.596 151.733 32.272 152.261 32.032C152.801 31.78 153.521 31.654 154.421 31.654H157.679V32.608H154.457C153.545 32.608 152.909 32.77 152.549 33.094C152.201 33.418 152.027 33.82 152.027 34.3C152.027 34.84 152.237 35.272 152.657 35.596C153.077 35.92 153.665 36.082 154.421 36.082C155.141 36.082 155.759 35.92 156.275 35.596C156.803 35.26 157.187 34.78 157.427 34.156L157.715 35.038C157.475 35.662 157.055 36.16 156.455 36.532C155.867 36.904 155.123 37.09 154.223 37.09ZM154.817 26.074L151.901 23.842H153.611L156.077 26.074H154.817ZM164.715 37.09C163.935 37.09 163.197 36.982 162.501 36.766C161.805 36.538 161.259 36.256 160.863 35.92L161.439 34.912C161.823 35.2 162.315 35.452 162.915 35.668C163.515 35.872 164.145 35.974 164.805 35.974C165.705 35.974 166.353 35.836 166.749 35.56C167.145 35.272 167.343 34.894 167.343 34.426C167.343 34.078 167.229 33.808 167.001 33.616C166.785 33.412 166.497 33.262 166.137 33.166C165.777 33.058 165.375 32.968 164.931 32.896C164.487 32.824 164.043 32.74 163.599 32.644C163.167 32.548 162.771 32.41 162.411 32.23C162.051 32.038 161.757 31.78 161.529 31.456C161.313 31.132 161.205 30.7 161.205 30.16C161.205 29.644 161.349 29.182 161.637 28.774C161.925 28.366 162.345 28.048 162.897 27.82C163.461 27.58 164.145 27.46 164.949 27.46C165.561 27.46 166.173 27.544 166.785 27.712C167.397 27.868 167.901 28.078 168.297 28.342L167.739 29.368C167.319 29.08 166.869 28.876 166.389 28.756C165.909 28.624 165.429 28.558 164.949 28.558C164.097 28.558 163.467 28.708 163.059 29.008C162.663 29.296 162.465 29.668 162.465 30.124C162.465 30.484 162.573 30.766 162.789 30.97C163.017 31.174 163.311 31.336 163.671 31.456C164.043 31.564 164.445 31.654 164.877 31.726C165.321 31.798 165.759 31.888 166.191 31.996C166.635 32.092 167.037 32.23 167.397 32.41C167.769 32.578 168.063 32.824 168.279 33.148C168.507 33.46 168.621 33.874 168.621 34.39C168.621 34.942 168.465 35.422 168.153 35.83C167.853 36.226 167.409 36.538 166.821 36.766C166.245 36.982 165.543 37.09 164.715 37.09Z" fill="white"/>
<path d="M78.3527 37V11.4L81.1527 14.2H72.7527V9H84.8327V37H78.3527ZM99.2167 37.48C97.2701 37.48 95.3367 37.2267 93.4167 36.72C91.5234 36.1867 89.8967 35.44 88.5367 34.48L91.0967 29.52C92.1634 30.2933 93.3901 30.9067 94.7767 31.36C96.1901 31.8133 97.6167 32.04 99.0567 32.04C100.683 32.04 101.963 31.72 102.897 31.08C103.83 30.44 104.297 29.5467 104.297 28.4C104.297 27.68 104.11 27.04 103.737 26.48C103.363 25.92 102.697 25.4933 101.737 25.2C100.803 24.9067 99.4834 24.76 97.7767 24.76H90.6167L92.0567 9H109.137V14.2H94.3767L97.7367 11.24L96.7367 22.48L93.3767 19.52H99.2967C102.07 19.52 104.297 19.9067 105.977 20.68C107.683 21.4267 108.923 22.4533 109.697 23.76C110.47 25.0667 110.857 26.5467 110.857 28.2C110.857 29.8533 110.443 31.3867 109.617 32.8C108.79 34.1867 107.51 35.32 105.777 36.2C104.07 37.0533 101.883 37.48 99.2167 37.48ZM127.886 15.16C129.592 15.16 131.112 15.5067 132.446 16.2C133.806 16.8667 134.872 17.9067 135.646 19.32C136.419 20.7067 136.806 22.4933 136.806 24.68V37H130.566V25.64C130.566 23.9067 130.179 22.6267 129.406 21.8C128.659 20.9733 127.592 20.56 126.206 20.56C125.219 20.56 124.326 20.7733 123.526 21.2C122.752 21.6 122.139 22.2267 121.686 23.08C121.259 23.9333 121.046 25.0267 121.046 26.36V37H114.806V7.32H121.046V21.44L119.646 19.64C120.419 18.2 121.526 17.0933 122.966 16.32C124.406 15.5467 126.046 15.16 127.886 15.16ZM180.699 37V32.8L191.499 22.6C192.352 21.8267 192.979 21.1333 193.379 20.52C193.779 19.9067 194.046 19.3467 194.179 18.84C194.339 18.3333 194.419 17.8667 194.419 17.44C194.419 16.32 194.032 15.4667 193.259 14.88C192.512 14.2667 191.406 13.96 189.939 13.96C188.766 13.96 187.672 14.1867 186.659 14.64C185.672 15.0933 184.832 15.8 184.139 16.76L179.419 13.72C180.486 12.12 181.979 10.8533 183.899 9.92C185.819 8.98667 188.032 8.52 190.539 8.52C192.619 8.52 194.432 8.86667 195.979 9.56C197.552 10.2267 198.766 11.1733 199.619 12.4C200.499 13.6267 200.939 15.0933 200.939 16.8C200.939 17.7067 200.819 18.6133 200.579 19.52C200.366 20.4 199.912 21.3333 199.219 22.32C198.552 23.3067 197.566 24.4133 196.259 25.64L187.299 34.08L186.059 31.72H201.859V37H180.699ZM208.853 37V11.4L211.653 14.2H203.253V9H215.333V37H208.853ZM234.597 15.16C236.303 15.16 237.823 15.5067 239.157 16.2C240.517 16.8667 241.583 17.9067 242.357 19.32C243.13 20.7067 243.517 22.4933 243.517 24.68V37H237.277V25.64C237.277 23.9067 236.89 22.6267 236.117 21.8C235.37 20.9733 234.303 20.56 232.917 20.56C231.93 20.56 231.037 20.7733 230.237 21.2C229.463 21.6 228.85 22.2267 228.397 23.08C227.97 23.9333 227.757 25.0267 227.757 26.36V37H221.517V7.32H227.757V21.44L226.357 19.64C227.13 18.2 228.237 17.0933 229.677 16.32C231.117 15.5467 232.757 15.16 234.597 15.16Z" fill="#F70000"/>
<path d="M33.544 64.09C32.644 64.09 31.834 63.886 31.114 63.478C30.406 63.07 29.848 62.506 29.44 61.786C29.032 61.054 28.828 60.214 28.828 59.266C28.828 58.306 29.032 57.466 29.44 56.746C29.848 56.026 30.406 55.468 31.114 55.072C31.834 54.664 32.644 54.46 33.544 54.46C34.372 54.46 35.11 54.646 35.758 55.018C36.418 55.39 36.94 55.936 37.324 56.656C37.72 57.364 37.918 58.234 37.918 59.266C37.918 60.286 37.726 61.156 37.342 61.876C36.958 62.596 36.436 63.148 35.776 63.532C35.128 63.904 34.384 64.09 33.544 64.09ZM33.634 62.956C34.306 62.956 34.906 62.806 35.434 62.506C35.974 62.194 36.394 61.762 36.694 61.21C37.006 60.646 37.162 59.998 37.162 59.266C37.162 58.522 37.006 57.874 36.694 57.322C36.394 56.77 35.974 56.344 35.434 56.044C34.906 55.732 34.306 55.576 33.634 55.576C32.974 55.576 32.38 55.732 31.852 56.044C31.324 56.344 30.904 56.77 30.592 57.322C30.28 57.874 30.124 58.522 30.124 59.266C30.124 59.998 30.28 60.646 30.592 61.21C30.904 61.762 31.324 62.194 31.852 62.506C32.38 62.806 32.974 62.956 33.634 62.956ZM37.198 64V61.156L37.324 59.248L37.144 57.34V50.644H38.422V64H37.198ZM45.9952 64.09C45.0112 64.09 44.1472 63.886 43.4032 63.478C42.6592 63.058 42.0772 62.488 41.6572 61.768C41.2372 61.036 41.0272 60.202 41.0272 59.266C41.0272 58.33 41.2252 57.502 41.6212 56.782C42.0292 56.062 42.5812 55.498 43.2772 55.09C43.9852 54.67 44.7772 54.46 45.6532 54.46C46.5412 54.46 47.3272 54.664 48.0112 55.072C48.7072 55.468 49.2532 56.032 49.6492 56.764C50.0452 57.484 50.2432 58.318 50.2432 59.266C50.2432 59.326 50.2372 59.392 50.2252 59.464C50.2252 59.524 50.2252 59.59 50.2252 59.662H41.9992V58.708H49.5412L49.0372 59.086C49.0372 58.402 48.8872 57.796 48.5872 57.268C48.2992 56.728 47.9032 56.308 47.3992 56.008C46.8952 55.708 46.3132 55.558 45.6532 55.558C45.0052 55.558 44.4232 55.708 43.9072 56.008C43.3912 56.308 42.9892 56.728 42.7012 57.268C42.4132 57.808 42.2692 58.426 42.2692 59.122V59.32C42.2692 60.04 42.4252 60.676 42.7372 61.228C43.0612 61.768 43.5052 62.194 44.0692 62.506C44.6452 62.806 45.2992 62.956 46.0312 62.956C46.6072 62.956 47.1412 62.854 47.6332 62.65C48.1372 62.446 48.5692 62.134 48.9292 61.714L49.6492 62.542C49.2292 63.046 48.7012 63.43 48.0652 63.694C47.4412 63.958 46.7512 64.09 45.9952 64.09ZM61.6142 64.144C60.7022 64.144 59.8802 63.94 59.1482 63.532C58.4162 63.112 57.8342 62.53 57.4022 61.786C56.9822 61.042 56.7722 60.166 56.7722 59.158C56.7722 58.138 56.9822 57.256 57.4022 56.512C57.8342 55.768 58.4162 55.192 59.1482 54.784C59.8802 54.376 60.7022 54.172 61.6142 54.172C62.4302 54.172 63.1442 54.352 63.7562 54.712C64.3682 55.072 64.8422 55.618 65.1782 56.35C65.5142 57.082 65.6822 58.018 65.6822 59.158C65.6822 60.286 65.5202 61.222 65.1962 61.966C64.8722 62.698 64.4042 63.244 63.7922 63.604C63.1922 63.964 62.4662 64.144 61.6142 64.144ZM62.1002 61.84C62.5562 61.84 62.9702 61.732 63.3422 61.516C63.7142 61.3 64.0082 60.994 64.2242 60.598C64.4522 60.19 64.5662 59.71 64.5662 59.158C64.5662 58.594 64.4522 58.114 64.2242 57.718C64.0082 57.322 63.7142 57.016 63.3422 56.8C62.9702 56.584 62.5562 56.476 62.1002 56.476C61.6322 56.476 61.2122 56.584 60.8402 56.8C60.4682 57.016 60.1682 57.322 59.9402 57.718C59.7242 58.114 59.6162 58.594 59.6162 59.158C59.6162 59.71 59.7242 60.19 59.9402 60.598C60.1682 60.994 60.4682 61.3 60.8402 61.516C61.2122 61.732 61.6322 61.84 62.1002 61.84ZM64.6382 64V62.02L64.6922 59.14L64.5122 56.278V50.644H67.3202V64H64.6382ZM74.527 64.144C73.495 64.144 72.577 63.928 71.773 63.496C70.981 63.064 70.351 62.476 69.883 61.732C69.427 60.976 69.199 60.118 69.199 59.158C69.199 58.186 69.427 57.328 69.883 56.584C70.351 55.828 70.981 55.24 71.773 54.82C72.577 54.388 73.495 54.172 74.527 54.172C75.547 54.172 76.459 54.388 77.263 54.82C78.067 55.24 78.697 55.822 79.153 56.566C79.609 57.31 79.837 58.174 79.837 59.158C79.837 60.118 79.609 60.976 79.153 61.732C78.697 62.476 78.067 63.064 77.263 63.496C76.459 63.928 75.547 64.144 74.527 64.144ZM74.527 61.84C74.995 61.84 75.415 61.732 75.787 61.516C76.159 61.3 76.453 60.994 76.669 60.598C76.885 60.19 76.993 59.71 76.993 59.158C76.993 58.594 76.885 58.114 76.669 57.718C76.453 57.322 76.159 57.016 75.787 56.8C75.415 56.584 74.995 56.476 74.527 56.476C74.059 56.476 73.639 56.584 73.267 56.8C72.895 57.016 72.595 57.322 72.367 57.718C72.151 58.114 72.043 58.594 72.043 59.158C72.043 59.71 72.151 60.19 72.367 60.598C72.595 60.994 72.895 61.3 73.267 61.516C73.639 61.732 74.059 61.84 74.527 61.84ZM94.116 54.172C94.884 54.172 95.562 54.328 96.15 54.64C96.75 54.94 97.218 55.408 97.554 56.044C97.902 56.668 98.076 57.472 98.076 58.456V64H95.268V58.888C95.268 58.108 95.106 57.532 94.782 57.16C94.458 56.788 94.002 56.602 93.414 56.602C93.006 56.602 92.64 56.698 92.316 56.89C91.992 57.07 91.74 57.346 91.56 57.718C91.38 58.09 91.29 58.564 91.29 59.14V64H88.482V58.888C88.482 58.108 88.32 57.532 87.996 57.16C87.684 56.788 87.234 56.602 86.646 56.602C86.238 56.602 85.872 56.698 85.548 56.89C85.224 57.07 84.972 57.346 84.792 57.718C84.612 58.09 84.522 58.564 84.522 59.14V64H81.714V54.316H84.396V56.962L83.892 56.188C84.228 55.528 84.702 55.03 85.314 54.694C85.938 54.346 86.646 54.172 87.438 54.172C88.326 54.172 89.1 54.4 89.76 54.856C90.432 55.3 90.876 55.984 91.092 56.908L90.102 56.638C90.426 55.882 90.942 55.282 91.65 54.838C92.37 54.394 93.192 54.172 94.116 54.172ZM100.593 64V54.316H103.401V64H100.593ZM101.997 52.966C101.481 52.966 101.061 52.816 100.737 52.516C100.413 52.216 100.251 51.844 100.251 51.4C100.251 50.956 100.413 50.584 100.737 50.284C101.061 49.984 101.481 49.834 101.997 49.834C102.513 49.834 102.933 49.978 103.257 50.266C103.581 50.542 103.743 50.902 103.743 51.346C103.743 51.814 103.581 52.204 103.257 52.516C102.945 52.816 102.525 52.966 101.997 52.966ZM111.893 54.172C112.661 54.172 113.345 54.328 113.945 54.64C114.557 54.94 115.037 55.408 115.385 56.044C115.733 56.668 115.907 57.472 115.907 58.456V64H113.099V58.888C113.099 58.108 112.925 57.532 112.577 57.16C112.241 56.788 111.761 56.602 111.137 56.602C110.693 56.602 110.291 56.698 109.931 56.89C109.583 57.07 109.307 57.352 109.103 57.736C108.911 58.12 108.815 58.612 108.815 59.212V64H106.007V54.316H108.689V56.998L108.185 56.188C108.533 55.54 109.031 55.042 109.679 54.694C110.327 54.346 111.065 54.172 111.893 54.172ZM123.077 67.636C122.165 67.636 121.283 67.522 120.431 67.294C119.591 67.078 118.889 66.748 118.325 66.304L119.441 64.288C119.849 64.624 120.365 64.888 120.989 65.08C121.625 65.284 122.249 65.386 122.861 65.386C123.857 65.386 124.577 65.164 125.021 64.72C125.477 64.276 125.705 63.616 125.705 62.74V61.282L125.885 58.852L125.849 56.404V54.316H128.513V62.38C128.513 64.18 128.045 65.506 127.109 66.358C126.173 67.21 124.829 67.636 123.077 67.636ZM122.645 63.532C121.745 63.532 120.929 63.34 120.197 62.956C119.477 62.56 118.895 62.014 118.451 61.318C118.019 60.61 117.803 59.788 117.803 58.852C117.803 57.904 118.019 57.082 118.451 56.386C118.895 55.678 119.477 55.132 120.197 54.748C120.929 54.364 121.745 54.172 122.645 54.172C123.461 54.172 124.181 54.34 124.805 54.676C125.429 55 125.915 55.51 126.263 56.206C126.611 56.89 126.785 57.772 126.785 58.852C126.785 59.92 126.611 60.802 126.263 61.498C125.915 62.182 125.429 62.692 124.805 63.028C124.181 63.364 123.461 63.532 122.645 63.532ZM123.203 61.228C123.695 61.228 124.133 61.132 124.517 60.94C124.901 60.736 125.201 60.454 125.417 60.094C125.633 59.734 125.741 59.32 125.741 58.852C125.741 58.372 125.633 57.958 125.417 57.61C125.201 57.25 124.901 56.974 124.517 56.782C124.133 56.578 123.695 56.476 123.203 56.476C122.711 56.476 122.273 56.578 121.889 56.782C121.505 56.974 121.199 57.25 120.971 57.61C120.755 57.958 120.647 58.372 120.647 58.852C120.647 59.32 120.755 59.734 120.971 60.094C121.199 60.454 121.505 60.736 121.889 60.94C122.273 61.132 122.711 61.228 123.203 61.228ZM135.734 64.144C134.702 64.144 133.784 63.928 132.98 63.496C132.188 63.064 131.558 62.476 131.09 61.732C130.634 60.976 130.406 60.118 130.406 59.158C130.406 58.186 130.634 57.328 131.09 56.584C131.558 55.828 132.188 55.24 132.98 54.82C133.784 54.388 134.702 54.172 135.734 54.172C136.754 54.172 137.666 54.388 138.47 54.82C139.274 55.24 139.904 55.822 140.36 56.566C140.816 57.31 141.044 58.174 141.044 59.158C141.044 60.118 140.816 60.976 140.36 61.732C139.904 62.476 139.274 63.064 138.47 63.496C137.666 63.928 136.754 64.144 135.734 64.144ZM135.734 61.84C136.202 61.84 136.622 61.732 136.994 61.516C137.366 61.3 137.66 60.994 137.876 60.598C138.092 60.19 138.2 59.71 138.2 59.158C138.2 58.594 138.092 58.114 137.876 57.718C137.66 57.322 137.366 57.016 136.994 56.8C136.622 56.584 136.202 56.476 135.734 56.476C135.266 56.476 134.846 56.584 134.474 56.8C134.102 57.016 133.802 57.322 133.574 57.718C133.358 58.114 133.25 58.594 133.25 59.158C133.25 59.71 133.358 60.19 133.574 60.598C133.802 60.994 134.102 61.3 134.474 61.516C134.846 61.732 135.266 61.84 135.734 61.84ZM154.427 64V61.912L154.373 61.57V58.078C154.373 57.274 154.145 56.656 153.689 56.224C153.245 55.792 152.579 55.576 151.691 55.576C151.079 55.576 150.497 55.678 149.945 55.882C149.393 56.086 148.925 56.356 148.541 56.692L147.965 55.738C148.445 55.33 149.021 55.018 149.693 54.802C150.365 54.574 151.073 54.46 151.817 54.46C153.041 54.46 153.983 54.766 154.643 55.378C155.315 55.978 155.651 56.896 155.651 58.132V64H154.427ZM151.169 64.09C150.461 64.09 149.843 63.976 149.315 63.748C148.799 63.508 148.403 63.184 148.127 62.776C147.851 62.356 147.713 61.876 147.713 61.336C147.713 60.844 147.827 60.4 148.055 60.004C148.295 59.596 148.679 59.272 149.207 59.032C149.747 58.78 150.467 58.654 151.367 58.654H154.625V59.608H151.403C150.491 59.608 149.855 59.77 149.495 60.094C149.147 60.418 148.973 60.82 148.973 61.3C148.973 61.84 149.183 62.272 149.603 62.596C150.023 62.92 150.611 63.082 151.367 63.082C152.087 63.082 152.705 62.92 153.221 62.596C153.749 62.26 154.133 61.78 154.373 61.156L154.661 62.038C154.421 62.662 154.001 63.16 153.401 63.532C152.813 63.904 152.069 64.09 151.169 64.09ZM167.892 64.144C166.98 64.144 166.158 63.94 165.426 63.532C164.694 63.112 164.112 62.53 163.68 61.786C163.26 61.042 163.05 60.166 163.05 59.158C163.05 58.138 163.26 57.256 163.68 56.512C164.112 55.768 164.694 55.192 165.426 54.784C166.158 54.376 166.98 54.172 167.892 54.172C168.708 54.172 169.422 54.352 170.034 54.712C170.646 55.072 171.12 55.618 171.456 56.35C171.792 57.082 171.96 58.018 171.96 59.158C171.96 60.286 171.798 61.222 171.474 61.966C171.15 62.698 170.682 63.244 170.07 63.604C169.47 63.964 168.744 64.144 167.892 64.144ZM168.378 61.84C168.834 61.84 169.248 61.732 169.62 61.516C169.992 61.3 170.286 60.994 170.502 60.598C170.73 60.19 170.844 59.71 170.844 59.158C170.844 58.594 170.73 58.114 170.502 57.718C170.286 57.322 169.992 57.016 169.62 56.8C169.248 56.584 168.834 56.476 168.378 56.476C167.91 56.476 167.49 56.584 167.118 56.8C166.746 57.016 166.446 57.322 166.218 57.718C166.002 58.114 165.894 58.594 165.894 59.158C165.894 59.71 166.002 60.19 166.218 60.598C166.446 60.994 166.746 61.3 167.118 61.516C167.49 61.732 167.91 61.84 168.378 61.84ZM170.916 64V62.02L170.97 59.14L170.79 56.278V50.644H173.598V64H170.916ZM180.804 64.144C179.772 64.144 178.854 63.928 178.05 63.496C177.258 63.064 176.628 62.476 176.16 61.732C175.704 60.976 175.476 60.118 175.476 59.158C175.476 58.186 175.704 57.328 176.16 56.584C176.628 55.828 177.258 55.24 178.05 54.82C178.854 54.388 179.772 54.172 180.804 54.172C181.824 54.172 182.736 54.388 183.54 54.82C184.344 55.24 184.974 55.822 185.43 56.566C185.886 57.31 186.114 58.174 186.114 59.158C186.114 60.118 185.886 60.976 185.43 61.732C184.974 62.476 184.344 63.064 183.54 63.496C182.736 63.928 181.824 64.144 180.804 64.144ZM180.804 61.84C181.272 61.84 181.692 61.732 182.064 61.516C182.436 61.3 182.73 60.994 182.946 60.598C183.162 60.19 183.27 59.71 183.27 59.158C183.27 58.594 183.162 58.114 182.946 57.718C182.73 57.322 182.436 57.016 182.064 56.8C181.692 56.584 181.272 56.476 180.804 56.476C180.336 56.476 179.916 56.584 179.544 56.8C179.172 57.016 178.872 57.322 178.644 57.718C178.428 58.114 178.32 58.594 178.32 59.158C178.32 59.71 178.428 60.19 178.644 60.598C178.872 60.994 179.172 61.3 179.544 61.516C179.916 61.732 180.336 61.84 180.804 61.84ZM200.393 54.172C201.161 54.172 201.839 54.328 202.427 54.64C203.027 54.94 203.495 55.408 203.831 56.044C204.179 56.668 204.353 57.472 204.353 58.456V64H201.545V58.888C201.545 58.108 201.383 57.532 201.059 57.16C200.735 56.788 200.279 56.602 199.691 56.602C199.283 56.602 198.917 56.698 198.593 56.89C198.269 57.07 198.017 57.346 197.837 57.718C197.657 58.09 197.567 58.564 197.567 59.14V64H194.759V58.888C194.759 58.108 194.597 57.532 194.273 57.16C193.961 56.788 193.511 56.602 192.923 56.602C192.515 56.602 192.149 56.698 191.825 56.89C191.501 57.07 191.249 57.346 191.069 57.718C190.889 58.09 190.799 58.564 190.799 59.14V64H187.991V54.316H190.673V56.962L190.169 56.188C190.505 55.528 190.979 55.03 191.591 54.694C192.215 54.346 192.923 54.172 193.715 54.172C194.603 54.172 195.377 54.4 196.037 54.856C196.709 55.3 197.153 55.984 197.369 56.908L196.379 56.638C196.703 55.882 197.219 55.282 197.927 54.838C198.647 54.394 199.469 54.172 200.393 54.172ZM206.87 64V54.316H209.678V64H206.87ZM208.274 52.966C207.758 52.966 207.338 52.816 207.014 52.516C206.69 52.216 206.528 51.844 206.528 51.4C206.528 50.956 206.69 50.584 207.014 50.284C207.338 49.984 207.758 49.834 208.274 49.834C208.79 49.834 209.21 49.978 209.534 50.266C209.858 50.542 210.02 50.902 210.02 51.346C210.02 51.814 209.858 52.204 209.534 52.516C209.222 52.816 208.802 52.966 208.274 52.966ZM218.17 54.172C218.938 54.172 219.622 54.328 220.222 54.64C220.834 54.94 221.314 55.408 221.662 56.044C222.01 56.668 222.184 57.472 222.184 58.456V64H219.376V58.888C219.376 58.108 219.202 57.532 218.854 57.16C218.518 56.788 218.038 56.602 217.414 56.602C216.97 56.602 216.568 56.698 216.208 56.89C215.86 57.07 215.584 57.352 215.38 57.736C215.188 58.12 215.092 58.612 215.092 59.212V64H212.284V54.316H214.966V56.998L214.462 56.188C214.81 55.54 215.308 55.042 215.956 54.694C216.604 54.346 217.342 54.172 218.17 54.172ZM229.354 67.636C228.442 67.636 227.56 67.522 226.708 67.294C225.868 67.078 225.166 66.748 224.602 66.304L225.718 64.288C226.126 64.624 226.642 64.888 227.266 65.08C227.902 65.284 228.526 65.386 229.138 65.386C230.134 65.386 230.854 65.164 231.298 64.72C231.754 64.276 231.982 63.616 231.982 62.74V61.282L232.162 58.852L232.126 56.404V54.316H234.79V62.38C234.79 64.18 234.322 65.506 233.386 66.358C232.45 67.21 231.106 67.636 229.354 67.636ZM228.922 63.532C228.022 63.532 227.206 63.34 226.474 62.956C225.754 62.56 225.172 62.014 224.728 61.318C224.296 60.61 224.08 59.788 224.08 58.852C224.08 57.904 224.296 57.082 224.728 56.386C225.172 55.678 225.754 55.132 226.474 54.748C227.206 54.364 228.022 54.172 228.922 54.172C229.738 54.172 230.458 54.34 231.082 54.676C231.706 55 232.192 55.51 232.54 56.206C232.888 56.89 233.062 57.772 233.062 58.852C233.062 59.92 232.888 60.802 232.54 61.498C232.192 62.182 231.706 62.692 231.082 63.028C230.458 63.364 229.738 63.532 228.922 63.532ZM229.48 61.228C229.972 61.228 230.41 61.132 230.794 60.94C231.178 60.736 231.478 60.454 231.694 60.094C231.91 59.734 232.018 59.32 232.018 58.852C232.018 58.372 231.91 57.958 231.694 57.61C231.478 57.25 231.178 56.974 230.794 56.782C230.41 56.578 229.972 56.476 229.48 56.476C228.988 56.476 228.55 56.578 228.166 56.782C227.782 56.974 227.476 57.25 227.248 57.61C227.032 57.958 226.924 58.372 226.924 58.852C226.924 59.32 227.032 59.734 227.248 60.094C227.476 60.454 227.782 60.736 228.166 60.94C228.55 61.132 228.988 61.228 229.48 61.228ZM242.011 64.144C240.979 64.144 240.061 63.928 239.257 63.496C238.465 63.064 237.835 62.476 237.367 61.732C236.911 60.976 236.683 60.118 236.683 59.158C236.683 58.186 236.911 57.328 237.367 56.584C237.835 55.828 238.465 55.24 239.257 54.82C240.061 54.388 240.979 54.172 242.011 54.172C243.031 54.172 243.943 54.388 244.747 54.82C245.551 55.24 246.181 55.822 246.637 56.566C247.093 57.31 247.321 58.174 247.321 59.158C247.321 60.118 247.093 60.976 246.637 61.732C246.181 62.476 245.551 63.064 244.747 63.496C243.943 63.928 243.031 64.144 242.011 64.144ZM242.011 61.84C242.479 61.84 242.899 61.732 243.271 61.516C243.643 61.3 243.937 60.994 244.153 60.598C244.369 60.19 244.477 59.71 244.477 59.158C244.477 58.594 244.369 58.114 244.153 57.718C243.937 57.322 243.643 57.016 243.271 56.8C242.899 56.584 242.479 56.476 242.011 56.476C241.543 56.476 241.123 56.584 240.751 56.8C240.379 57.016 240.079 57.322 239.851 57.718C239.635 58.114 239.527 58.594 239.527 59.158C239.527 59.71 239.635 60.19 239.851 60.598C240.079 60.994 240.379 61.3 240.751 61.516C241.123 61.732 241.543 61.84 242.011 61.84Z" fill="white"/>
<path d="M14 47C14 50.866 10.866 54 7 54C3.13401 54 0 50.866 0 47C0 43.134 3.13401 40 7 40C10.866 40 14 43.134 14 47ZM2.29203 47C2.29203 49.6001 4.39986 51.708 7 51.708C9.60014 51.708 11.708 49.6001 11.708 47C11.708 44.3999 9.60014 42.292 7 42.292C4.39986 42.292 2.29203 44.3999 2.29203 47Z" fill="#F70000"/>
</svg>
